<svg xmlns="http://www.w3.org/2000/svg" viewBox="0 0 296.44 298.64"><defs><style>.cls-1{fill:#0c0c0c;}.cls-2{fill:#0d0d0d;}.cls-3{fill:#0e0e0e;}.cls-4{fill:#0d0e0e;}.cls-5{fill:#101010;}.cls-6{fill:#1a1a1a;}.cls-7{fill:#151616;}.cls-8{fill:#1c1d1d;}.cls-9{fill:#1e1f1f;}.cls-10{fill:#161616;}.cls-11{fill:#141414;}.cls-12{fill:#141515;}.cls-13{fill:#1d1d1d;}.cls-14{fill:#161717;}.cls-15{fill:#1b1b1b;}.cls-16{fill:#1e1e1e;}.cls-17{fill:#202020;}.cls-18{fill:#252525;}.cls-19{fill:#616060;}.cls-20{fill:#323232;}.cls-21{fill:#222;}.cls-22{fill:#020202;}.cls-23{fill:#080808;}.cls-24{fill:#070808;}.cls-25{fill:#090909;}.cls-26{fill:#131313;}.cls-27{fill:#131414;}.cls-28{fill:#1d1e1e;}.cls-29{fill:#181919;}.cls-30{fill:#171717;}.cls-31{fill:#171818;}.cls-32{fill:#ec2227;}.cls-33{fill:none;stroke:#000;stroke-miterlimit:10;stroke-width:5px;}</style></defs><title>فاتح</title><g id="Layer_2" data-name="Layer 2"><g id="Layer_1-2" data-name="Layer 1"><path class="cls-1" d="M138.56,35.75c-.23-1.58-.56-3-.66-4.5-.49-7.3-.47-7.16,7-7.11,3.3,0,4.54,1.4,4.43,4.48,0,1.26.59,2.81-1.29,3.28s-2.75-.5-2.85-2.36a1.76,1.76,0,0,0-2.35-1.84c-1.27.32-.83,1.59-.9,2.51-.27,3.63.94,5.52,5.06,5.48,7.75-.06,7.79.14,8.46-7.46.33-3.82.45-7.65.72-11.48.11-1.42-.16-3.23,2.18-3.12s2,1.73,1.91,3.25c-.41,6.65-.91,13.3-1.17,20-.09,2.38-1.21,2.62-3.15,2.57-4.83-.12-9.66-.15-14.48,0-3.5.08-7.38-.79-8.9,4.2A3.37,3.37,0,0,1,127.84,45c-2.07-1.56.46-2.15,1.24-3.19,1.52-2-.09-4.15-.16-6.23a64.73,64.73,0,0,0-1-7.41c-.19-1.26-.1-2.34,1.45-2.65,1.81-.36,2.38.72,2.58,2.2a37.41,37.41,0,0,1,.53,4.46C132.53,36.32,134.66,37.19,138.56,35.75Z"/><path class="cls-2" d="M95.13,53.37a6.89,6.89,0,0,0-2.3,1.19C91,56.18,88,57.66,86.34,56.47c-2.52-1.83-3.61-5.42-4.39-8.66a2.74,2.74,0,0,1,1.55-3.35c1.55-.55,2,1.13,2.24,2.08,1.5,5.7,4.53,5.81,8.8,2.79a36.35,36.35,0,0,1,5.31-2.72c1.4-.66,2.81-1.11,1.71-3.24-.89-1.73-1.9-2.68-3.88-1.93a18.17,18.17,0,0,0-1.78.86c-1,.53-1.92.51-2.52-.59-.75-1.39,0-2.05,1.22-2.64,3.58-1.73,7.07-3.66,10.68-5.31s5.81,0,6.93,3.35,2.91,3.78,6,2.71c3.9-1.33,1-3.68,1.28-5.6.27-2.29-3.63-5.63.38-6.61,3.59-.87,2.82,3.45,3.44,5.64,2.28,8.06,2.06,7.69-6,10.35-4.49,1.47-7,1.1-8.35-3.6-.46-1.51-1.38-3.36-3.59-2.35-2.69,1.23-.64,3.1.07,4,4.61,6.11-1.88,6.31-4.41,8.6A58.24,58.24,0,0,0,95.13,53.37Z"/><path class="cls-3" d="M43.13,120.36c-1.61,2.91-1.9,6.17-2.36,9.37-.54,3.73-1.85,5.89-6.08,3.85-1.61-.77-3.51-1-5.13-1.73a2.57,2.57,0,0,1-1.45-3.34c.71-1.75,2.16-.57,3-.22,5.11,2.27,7.11.11,7.64-4.85.25-2.29,1-4.53,1.44-6.8.2-.94.6-2-.9-2.3-1.1-.18-1.75.34-2.35,1.34-1.23,2.1,0,6-2.66,6.41-2.91.42-6.08-1.2-9.16-1.78-6.12-1.16-2.17-5-2-7.69.24-3.14,2-4.9,5.45-3.63,1,.37,2.6.07,2.38,1.84-.13,1.11-.36,2.45-1.92,2.45-1.39,0-3-.1-2.83,1.78.22,2.19,2.47,1.71,3.91,2.15s2.76.43,3.22-1.77c.59-2.85,1.08-6.09,5.43-5.65,5.6.57,6,1.1,5.21,7.35C43.2,118.08,44.06,119.45,43.13,120.36Z"/><path class="cls-4" d="M230,40.34c.6,2-1,3-1.94,4.31-2.78,3.73-5.82,7.27-8.43,11.12-.73,1.07-4.09,2.08-1.33,4,2.44,1.75,2.95-1.33,3.9-2.46,3.21-3.82,6.13-7.86,9.18-11.8.9-1.15,1.65-2.52,3.52-1s.54,2.54-.32,3.65c-4.05,5.27-8.19,10.47-12.15,15.8-1.27,1.7-2.19,2.06-3.9.58-2.26-2-4.75-3.64-7.11-5.48-.76-.59-1.8-1.21-1.26-2.4a1.91,1.91,0,0,1,2.39-1.26c2.16.59,2.85-1.21,3.85-2.44q5.46-6.78,10.9-13.57C228.5,38.86,229.29,39.47,230,40.34Z"/><path class="cls-5" d="M259.1,70.89c-.72.69-1.38,1.4-2.13,2-5.09,4-10.24,8-15.28,12-1.9,1.53-3.39,2-4.73-.52-.32-.58-.83-1-1.18-1.61-1.55-2.44-5.54-4.83-4.36-7.12,1.51-3,5.32-4.79,8.3-6.89,1.24-.86,3.16-1,4,.44,1,1.66-1.12,2.06-1.95,2.88a21.24,21.24,0,0,1-3.92,3.07c-2.27,1.37-1.67,2.58-.35,4.35,1.44,1.94,2.44,1.42,4,.2,4.4-3.55,8.9-7,13.38-10.44.73-.55,1.51-1.58,2.56-.54A20.13,20.13,0,0,1,259.1,70.89Z"/><path class="cls-6" d="M45.38,180.09c-.26,1.06.65,3-1.36,3s-1-2-1.3-3.08c-.54-2.26-.77-4.93-3.84-5s-3.52,2.41-3.89,4.81a21.92,21.92,0,0,1-.92,3.86,6.2,6.2,0,0,1-5.93,4.5,6.43,6.43,0,0,1-6.34-4c-1.23-2.56-2-5.28-1-8.14a1.24,1.24,0,0,1,1.63-.72c.82.2.83.87.81,1.54-.13,3.4-.26,7.5,4,7.82,4.6.35,4.14-4.14,4.88-7.27.84-3.56,2.83-6.07,6.89-5.77C42.68,172,45.27,175.51,45.38,180.09Z"/><path class="cls-7" d="M207.94,266.46c-6.33,0-11.58-5.27-12-11.87-.39-6.05,4.27-12.14,10-13.07,1-.16,2.06-.43,2.24,1,.21,1.72-1.28,1.53-2.28,2-7.05,3.19-8.74,8.18-4.89,14.31,3.27,5.21,7.9,5.92,13.63,2.17.93-.61,1.77-2.68,3.17-.95,1.27,1.55-.51,2.36-1.45,3.07C213.79,265.07,211.06,266.65,207.94,266.46Z"/><path class="cls-8" d="M45.71,199.85a111.58,111.58,0,0,1-21.39-.17,13.24,13.24,0,0,1-3.8-1.09c-1.41-.64-3.7-1.38-2.92-3.2,1.1-2.53,2.73-.34,4,.38,2.83,1.6,5.16,1.4,7.48-1.14,2.47-2.69,5.26-5.09,8-7.53.74-.65,1.56-2.3,2.74-1,.92,1,.84,2.39-.46,3.49-2.64,2.25-5.2,4.6-8.48,7.53,3.63,0,6.54.31,9.35-.09s4.26.75,5.48,2.85Z"/><path class="cls-9" d="M70.5,236.45c-.07,2.25-7.68,10.79-9.82,11-.68.08-1.47.13-1.57-.67a2.45,2.45,0,0,1,.67-1.7c1.93-2,4-4,5.93-6,1.73-1.78,2.13-3.9.38-5.71s-4-1.46-5.79.17c-2,1.78-3.77,3.72-5.68,5.56-.8.78-1.53,1.9-2.86.65s-.61-2,.3-2.88c3.06-3,6.08-6.11,9.15-9.13a3.07,3.07,0,0,1,1.61-1C63.61,226.7,70.53,235.59,70.5,236.45Z"/><path class="cls-10" d="M240.74,50.17c.55.45,1.21.9,1.78,1.45a1.34,1.34,0,0,1-.06,2.14Q234.71,61.83,227,69.91c-1.09,1.14-1.92.82-2.85-.19-.74-.8-1.3-1.49-.33-2.5q8-8.23,15.88-16.47A4.91,4.91,0,0,1,240.74,50.17Z"/><path class="cls-11" d="M169.27,18.23c-1,6.56-2,13.12-3,19.68-.2,1.4-.28,2.62-2.26,2.41-2.33-.26-2-1.75-1.75-3.27.92-6.4,1.81-12.81,2.78-19.2.2-1.35-.2-3.33,2.09-3.24C169.65,14.7,169.46,16.48,169.27,18.23Z"/><path class="cls-12" d="M65.58,42c.8.85,1.52,1.53,2.14,2.29q6.11,7.56,12.19,15.17c.93,1.17,2.07,2.21.24,3.71s-2.55,0-3.45-1.09c-4.16-5.2-8.34-10.38-12.47-15.61-.65-.82-2-1.65-.73-2.94A15.19,15.19,0,0,1,65.58,42Z"/><path class="cls-7" d="M259.36,137.2c-1.24.18-2.29.13-2.45-1.54s.22-2.35,2-2.56c6.9-.77,13.78-1.7,20.66-2.62,1.5-.19,2.51-.12,2.72,1.79s-.79,2.16-2.27,2.34C273.13,135.44,266.25,136.33,259.36,137.2Z"/><path class="cls-13" d="M271.43,180.88c-1.55-.33-3.49-.77-5.44-1.15-1.3-.25-3.33-1.06-3.82-.51-4,4.44-4.34-2.74-7.13-2.27a1.47,1.47,0,0,1,1-2.59,2.56,2.56,0,0,1,1,.14c3.27,1.2,2.09-3.19,3.78-3.19,3.16,0,0,3.37,1.76,4.1a22,22,0,0,0,5.71,1.51c2.22.31,5,2,6-1.89.2-.78,1-.78,1.65-.58a1.3,1.3,0,0,1,.92,1.54C276.55,179,275.2,181,271.43,180.88Z"/><path class="cls-8" d="M250.21,228.39c-3.81-.5-6.86-2.27-8.51-5.94-1.73-3.84-.33-7.11,2.2-10.07.76-.9,1.73-1.91,2.88-.77,1,1-.09,1.74-.73,2.45-3,3.37-2.92,6.6.68,9.42s6.06,2,9.3-2.62c.58-.84.92-2,2.15-1.41s.64,1.63.26,2.53C256.91,225.62,254.44,228,250.21,228.39Z"/><path class="cls-14" d="M51.18,108.83c-.13,1.2-.4,2.74-1.5,3-1.81.36-1.77-1.17-1.87-2.58-.11-1.62-1.75-1.81-2.93-2.32-3.06-1.3-6.14-2.53-9.2-3.83-1.27-.54-2.33-1.16-1.67-3s1.7-1.56,3.1-1c3.8,1.66,7.65,3.22,11.47,4.84C50.73,104.89,51.44,106.61,51.18,108.83Z"/><path class="cls-15" d="M241.71,232.36c-1.37-.32-2,1-3.1,1.38-1.87.67-3.7.79-5.05-.58a5.07,5.07,0,0,1-1.32-5.46,6.74,6.74,0,0,1,4.36-4.37,1.11,1.11,0,0,1,1.56.71c.25.75-.1,1.08-.82,1.43-2,.93-3.87,2.57-2.5,4.69,1.46,2.28,3.48.12,5.22-.5,3.45-1.22,6.44-1,7.91,2.92.86,2.27-2.2,7.18-4.74,7.82a2.18,2.18,0,0,1-1.82-.37c-.7-.75-.29-1.37.64-1.82a11,11,0,0,0,2-1.46,2.88,2.88,0,0,0,.8-3.61C244.23,231.77,242.75,232.65,241.71,232.36Z"/><path class="cls-16" d="M255.82,193.22c-1.66-8.38,1.9-11.59,10-9q2.82.92,5.6,1.93c1.13.42,3,.34,2.32,2.38-.58,1.89-2,1.21-3.24.81-2-.66-4-1.41-6.07-2.05-5.05-1.58-6.44-.48-6.41,5C257.54,193.28,257,193.93,255.82,193.22Z"/><path class="cls-16" d="M222.31,258.86c-1.11.07-1.43-.85-1.88-1.46-2.46-3.31-4.84-6.68-7.28-10-1.31-1.79-1.48-3.33,1.3-2.91s.84-2.64,2.51-3c.66-.13,1-1.36,2-.64.69.51,1.43,1.52.9,2.06-4.41,4.54,0,7.4,1.93,10.7.6,1,1.4,1.86,1.94,2.87C224.59,258,223.32,258.41,222.31,258.86Z"/><path class="cls-17" d="M45.7,199.85c.9,2.23-.64,5.54,3,6.58a.93.93,0,0,1,.08,1.62c-.49.33-1.56.57-1.83.3-4.45-4.33-7.87-.1-11.63,1.3-1.35.5-2.93,2.53-4.08,0-1-2.13,1.37-2.24,2.49-2.94,3.9-2.45,8.52-3.66,12-6.9Z"/><path class="cls-18" d="M91,268.58c-2-.26-2.35-1.24-1.61-2.8l5.75-12.09c.38-.79,1.71-1.5,1.75-1.1.47,4.49,5.77.15,6.5,3.65.14.66-.26,2-1.31,1.68-6-1.57-6.48,3.58-8.5,6.87C92.77,266.11,92.77,268.05,91,268.58Z"/><path class="cls-9" d="M38,220.68a11.65,11.65,0,0,1-1.46-1.34,1.25,1.25,0,0,1,.42-2c4.07-2.5,8.15-5,12.21-7.51a1.19,1.19,0,0,1,2,.6c.24.53,1.07,1.22.36,1.69C47.12,215,42.66,217.74,38,220.68Z"/><path class="cls-15" d="M255.82,193.22l2.18-.88c2.67,3.1,6.74,3.23,10.17,4.72,1.13.49,2.25.79,1.82,2.34s-1.75,1.21-2.82.86c-4.07-1.32-8.12-2.71-12.16-4.11-.75-.26-1.63-.56-1.41-1.65S254.69,193,255.82,193.22Z"/><path class="cls-19" d="M121,48.34c-2,.35-2.39-.81-2.47-2-.13-1.84,1.45-1.89,2.68-2.14,1.53-.31,2.07.61,2.12,2C123.41,48,121.93,48.1,121,48.34Z"/><path class="cls-20" d="M54.82,206.2c1.52,0,2.27.44,2.35,1.69a2,2,0,1,1-3.9.16A1.85,1.85,0,0,1,54.82,206.2Z"/><path class="cls-21" d="M132.17,273.59l0-6.64A6.06,6.06,0,0,1,132.17,273.59Z"/><path class="cls-22" d="M148.34,47.77c-54-.4-99.93,44.66-100.31,98.39-.41,56.87,43.65,102.55,99.26,102.9A100.67,100.67,0,0,0,249,148.92C249.26,93.17,204.5,48.19,148.34,47.77ZM148,243.35c-52,0-94.3-42.44-94.53-94.85-.23-52.15,42.63-95.12,94.89-95.13a95,95,0,1,1-.36,190Z"/><path class="cls-23" d="M281,123.11c-.56-2.27-2-1.56-3.5-1.25-5,1-10.09,2-15.14,3-1.74.34-3.55,1.32-4.23-1.6-.65-2.73,1.31-3,2.94-3.61s3.45-1.19,5.16-1.81c2.56-.91,3.84-2.63,3-5.38-1.07-3.48-2.25-6.93-3.45-10.37-.26-.73-.66-1.68-1.73-1.24s-1,1.14-.57,2.06a13.45,13.45,0,0,1,.58,2.39c3.31,7.08,2.92,8.15-3.89,10.37-1.4.45-3.24,2-4-.53-.69-2.23,1.68-2.28,2.82-2.51,3.7-.74,5-2.75,4.13-6.31h0c-1.56-3.31-2.79-7-7.81-4.22-.95.52-2.69,2.79-4,0-1.17-2.56.79-3.09,2.38-4,4.49-2.51,9-5.08,13.44-7.6,1.31-.73,2.81-1.21,1.71-3.28s-2.29-1.08-3.59-.35c-4.49,2.52-9,5.08-13.51,7.48-1.22.64-2.62,2.87-4.1.6-1.72-2.65,1.31-2.51,2.38-3.15,4.56-2.73,9.27-5.2,13.88-7.83,1.05-.6,2.55-1,1.45-2.93s-2.11-1.52-3.57-.68c-4.46,2.57-8.94,5.11-13.46,7.56-1.22.65-2.47,2.13-4,.88-1.18-1-2.23-.83-3,.16s0,1.87.54,2.72c7,11.09,11,23.36,13.86,36,.34,1.53.49,2.73,2.83,2.19,6.63-1.52,13.34-2.68,20-4C280,125.56,281.58,125.34,281,123.11Zm-27.09-14.75c.17-2.4,2.39-2.27,3.93-2.85a1.29,1.29,0,0,1,1.73,1.2c-.2,2.38-2.45,2.07-3.72,2.66C254.75,109.56,253.86,109.46,253.94,108.36Z"/><path class="cls-24" d="M73.85,63.74c-4.41-4.53-8.65-9.22-13-13.81-.93-1-1.66-2.73-3.57-1.17-2.1,1.72-.54,2.81.56,4,3.28,3.54,6.66,7,9.8,10.65.94,1.1,3.64,1.75,1.58,4.29-2.29,2.84-3.68.41-5.27-.68a36.34,36.34,0,0,1-3.86-3.15c-1.2-1.08-2.13-1.21-3.29.17-1.34,1.59-.29,2.33.78,3.19,1.82,1.45,3.64,2.91,5.47,4.35.86.68,1.44,1.37.58,2.46s-1.59.74-2.45,0c-1.68-1.36-3.36-2.72-5.11-4C55,69.29,54,67.62,52.4,69.54c-1.49,1.77-.23,2.64,1,3.6A28.08,28.08,0,0,1,56.83,76c1,1.12,4.07,1.53,2.05,4-1.79,2.13-2.76-.47-4-1.18s-2-1.73-3.18-2.39-2-3.19-4-.84.54,3.09,1.67,4.17a30.58,30.58,0,0,0,4.29,3.41c1.91,1.24,1,2.39.19,3.72s-1.73,1.77-3.23.83c-2-1.23-4.05-2.28-6.1-3.35-.81-.42-1.43-1.1-2.56-.06-5.11,4.66-4.59,9.94,1.44,13.25A17.73,17.73,0,0,1,46,99c2.81,2.2,4.73,1.35,6.09-1.65.33-1.23.92-3.38,2-2.67,2,1.26,0,2.69-.92,3.89h0c.19,1.37-2.3,2.41-.5,4,.31.26.62.6,1.27.26,1.8-1,5.19-9.35,3.82-10.57-2.45-2.17-1.23-3.65.2-5.35,5.14-6.1,9.62-12.79,15.71-18C76,66.88,75.72,65.65,73.85,63.74ZM48,95.17c-2.11-.94-4.94-1.33-5.57-4.11-.18-.8.48-2.6,2.05-2,2.17.86,4.48,1.7,5.86,3.64C49.75,94.12,49.37,95.77,48,95.17Z"/><path class="cls-25" d="M205.16,37.76c-1.13-.58-2.42-2.47-3.84-.61-.64.83-1.79,1.91-1.11,3.11a2.54,2.54,0,0,0,3.71,1.06,1.79,1.79,0,0,1,2.34,1.33c.9,2.61-1.5,4.18-2.17,6.32-.44,1.38-1.24.54-1.91.34-7-2.05-8.33-4.44-6.32-11.31.19-.64.35-1.28.58-2.13-.12-.79,0-2-1.06-2.42-2.74-1.14-5.55-2.85-8.36-2.9-2.22,0-1.82,3.47-2.87,5.25a9.9,9.9,0,0,0-1.05,2.79,1.91,1.91,0,0,1-2.49,1.7c-2-.33-1.73-1.73-1.44-3,.48-2.1,1.07-4.18,1.63-6.26.37-1.39.56-2.46-1.38-3s-2.21.39-2.55,1.9c-.74,3.23-1.63,6.43-2.52,9.62-.34,1.24-.26,2.73-1.72,3.41-1,.47-3.34,0-2.38,2s3.85,2.07,4.77.94c3.65-4.45,7.18-1.36,10.67-.29a80,80,0,0,1,16.25,7.49c2.89,1.66,7,5.27,6.11-2.58-.06-.55.54-1.18.82-1.77C212.06,42,211.81,41.12,205.16,37.76Zm-13.43-.31c-.93,1.94-1,4.34-2.55,5.87-1.87-.75-3-1.55-2.21-3.16.91-1.84.2-4.9,3.29-5.14A1.56,1.56,0,0,1,191.73,37.45Z"/><path class="cls-26" d="M192.66,272.34c-2-6.66-4-13.33-6-20-.3-1-.54-2.46-2.31-1.71-1.48.63-1.24,1.67-.84,2.87.62,1.88,1.13,3.79,1.9,6.42-4.16-1-7.26-.26-9.2,2.89-2.22,3.61-1.65,7.35.48,10.82a7.37,7.37,0,0,0,7.09,3.72c3.16-.14,4.71-4.32,8.46-3.1C193.08,274.56,192.9,273.14,192.66,272.34Zm-8.93,2c-4.31-.11-5.31-3.47-5.57-6.93-.24-3.09,1.34-5.35,4.6-5.22,4.49.19,4.43,4.18,5.36,7C188.09,272.35,186.74,274.39,183.73,274.3Z"/><path class="cls-27" d="M90,240.9c-1.75-1.14-2.77-.13-3.94.8-4.8,3.83-9.66,7.58-14.34,11.56-.77.66-3.5,1-1.71,3.07,1.43,1.67,2.63.12,3.75-.75,2.16-1.68,3.84-3.69,7.15-1.16,2.66,2,3.88,3.63,2.53,6.86-.67,1.61-1.35,3.62,1.33,4.44,1.21.11,1.15-.87,1.34-1.62q2.48-9.87,4.94-19.76C91.4,243,91.5,241.86,90,240.9Zm-5,12.49c-1.29,1.21-3.09-1.68-5-2.32,1.75-2.7,4.32-3.88,7-6.45C87.25,248.47,86.9,251.63,85,253.39Z"/><path class="cls-3" d="M156.34,278.82c-.73-4.36-4.32-8.64-.16-13.17.55-.6.2-2.29-.11-3.37-1-3.58-5.37-4.93-11.61-4.22-4.4.5-2.15,3.67-2.51,5.67a35,35,0,0,0-.07,6,38.3,38.3,0,0,0,.07,6c.31,2-1.47,5.69,1.48,5.72,3.13,0,1-3.68,1.65-5.64.44-1.4-1.19-3.69,1.28-4.13s4.68.4,5.58,3.07c.53,1.56.84,3.2,1.25,4.81.37,1.41,1.06,2.6,2.74,2.12C157.86,281.07,156.51,279.79,156.34,278.82Zm-9.14-9.61c-4.13-.22-1.72-3.48-2.13-5.34-.5-2.25.08-4.07,2.13-3.63,3.65.41,6,1.23,5.93,4.49C153,268.47,150.27,269.37,147.2,269.21Z"/><path class="cls-28" d="M132.2,267a6.08,6.08,0,0,0-6.64-4.33c-6.67,1.92-2.86-2.61-3.19-4.5a3.59,3.59,0,0,1,.36-1.44c.41-1.37.64-2.75-1.23-3.14s-1.76,1.28-2,2.26c-1.41,6.66-2.67,13.35-4.09,20-.47,2.23.35,2.84,2.31,2.16.55-.2.42-1.18,1.68-.47,6.4,3.63,8.86,2.78,12.74-3.92A13,13,0,0,0,132.2,267Zm-9.09,10.27c-3.88-.23-2.9-3.21-3.34-5.08.48-3.73,1-7.36,5.41-7.26,3.09.08,4.54,2.51,4.49,5.46C129.59,274.64,126.69,277.43,123.11,277.22Z"/><path class="cls-29" d="M239.05,243.53c-1.89-2-2.35,1.77-3.87,2.34-.29.11-.5.43-.77.62-2.12,1.52-4.69,2-6.27-.05s1.56-2.58,2.42-3.91c.35-.54,1.11-.82,1.44-1.36.94-1.52,4.2-1.91,2.82-4.45a7,7,0,0,0-5.93-3.37,6.57,6.57,0,0,0-4.44,1.73c-3.57,3-3.76,8-.45,12,3.62,4.38,8.46,4.86,12.58,1.08C237.93,246.91,240.61,245.15,239.05,243.53Zm-14.83-3.61c.41-2.4,1.91-3.82,4.42-3.65,1.23.09,3.29.57,2.34,2.13-1.21,2-3.38,3.43-5,5A2.94,2.94,0,0,1,224.22,239.92Z"/><path class="cls-30" d="M57.62,219.34c-1.31-1.69-2.95-4.93-5.09-3.34-1.89,1.4,1.7,2.35,2.44,3.82s1.58,2.7.27,4.06c-1.83,1.88-2.48-.44-3.42-1.2-1.7-1.39-3.35-2.73-6-2.63a4.65,4.65,0,0,0-4.32,2.39c-1.33,2.09,3.62,11.65,6,11.74a1.56,1.56,0,0,0,.87-.43c3.1-2.5,6.37-4.82,9.22-7.57C59.65,224.2,59.29,221.5,57.62,219.34Zm-9.74,9.74A3.48,3.48,0,0,1,44,225.93c-.28-1.9,1-2.86,2.62-2.94,2.46-.13,3.84,1.62,5.09,3.53A4.21,4.21,0,0,1,47.88,229.08Z"/><path class="cls-14" d="M265.91,205.48c-2.44-1.22-1.6,1.7-2.4,2.63-.63.73-.89,1.78-1.5,2.55-1.38,1.77-3.52,2.52-5.31,1.48-2.24-1.29.31-2.75.62-4.14a14.45,14.45,0,0,1,1.57-3.08c2.05-4,1.1-5.5-3.63-5.6a7.25,7.25,0,0,0-6.83,9.69,9.79,9.79,0,0,0,9.18,6.49c4.44.25,6.67-2.48,8.12-6C266.22,208.26,267.52,206.29,265.91,205.48ZM252.71,210c-1.14.43-2.15-2-2.16-3.34,0-2.23.91-4.24,3.64-4.32,1,0,2.41-.48,2.59,1.43C255.33,205.73,255.27,209,252.71,210Z"/><path class="cls-14" d="M107.33,257.3c-1.1-.24-3-1-3.2.95s1.67.95,2.64,1.19c2.17.53,4.7,1.13,4.08,3.92-.53,2.39-2.75.42-4.19.67a6.2,6.2,0,0,1-1.38-.17c-2.61,0-5.34.53-6.25,3.9-.74,2.73.12,4.93,2.84,6.13,6.65,2.94,8.38,2.18,10.86-4.7.11-.32.21-.63.32-.94C115.47,261.31,114.21,258.82,107.33,257.3Zm2.13,11.22a4,4,0,0,1-4,3.71c-1.74,0-3.38-.64-3.39-2.75,0-2.58,1.76-3.25,4.15-3.19C107.45,266.72,109.88,265.83,109.46,268.52Z"/><path class="cls-31" d="M170.71,277.51c-4,1.37-7.15.88-8.6-3.74,2.6-1.3,5.28-1.35,7.91-1.55,3.12-.23,4.12-1.67,2.91-4.56-1.27-3.06-3.4-4.8-6.9-4.58s-6.11,2-6.9,5.41c-1,4.19-.87,8.41,3.35,11.07,3.26,2.05,6.68,1.33,10-.09a1.19,1.19,0,0,0,.77-1.59C172.66,276.55,171.54,277.22,170.71,277.51ZM162,269.05a4,4,0,0,1,4.06-3.63c2.11-.1,4.06,1.37,3.68,3.13-.57,2.7-3.6,1.22-5.08,1.84C163.11,270.6,161.69,271,162,269.05Z"/><path class="cls-32" d="M204.1,86.3c-36-12.46-66.38-5.16-87.28,27.26-15.27,23.69-14.92,49.55,1,73C139,218,169,224.62,204.28,212.37c-10.37,13.13-43.41,26.85-76,18-36.46-9.93-62-44.13-61.34-83.23.62-37.62,27.9-71.06,64.68-79.6C162.45,60.37,194.05,73.22,204.1,86.3Z"/><ellipse class="cls-33" cx="148.22" cy="149.32" rx="145.72" ry="146.82"/><rect class="cls-2" x="94.43" y="53.76" width="5.33" height="4.1" rx="1.85" transform="translate(-14.85 59.04) rotate(-31.54)"/><rect class="cls-2" x="99.73" y="50.7" width="5.33" height="4.1" rx="1.85" transform="translate(-12.47 61.36) rotate(-31.54)"/><rect class="cls-2" x="42.29" y="126.57" width="5.33" height="4.1" rx="1.85" transform="translate(-90.09 146.7) rotate(-78.36)"/><rect class="cls-2" x="43.68" y="120.61" width="5.33" height="4.1" rx="1.85" transform="translate(-83.14 143.31) rotate(-78.36)"/><rect class="cls-2" x="120.98" y="42.6" width="4.75" height="4.1" rx="1.6" transform="translate(-7.47 34.83) rotate(-15.61)"/></g></g></svg>