<svg width="114" height="114" viewBox="0 0 114 114" fill="none" xmlns="http://www.w3.org/2000/svg">
<path d="M71.25 61.5127H38C36.0525 61.5127 34.4375 59.8977 34.4375 57.9502C34.4375 56.0027 36.0525 54.3877 38 54.3877H71.25C73.1975 54.3877 74.8125 56.0027 74.8125 57.9502C74.8125 59.8977 73.1975 61.5127 71.25 61.5127Z" fill="#DDDDDD"/>
<path d="M58.805 80.5127H38C36.0525 80.5127 34.4375 78.8977 34.4375 76.9502C34.4375 75.0027 36.0525 73.3877 38 73.3877H58.805C60.7525 73.3877 62.3675 75.0027 62.3675 76.9502C62.3675 78.8977 60.7525 80.5127 58.805 80.5127Z" fill="#DDDDDD"/>
<path d="M66.5 32.0625H47.5C42.94 32.0625 34.4375 32.0625 34.4375 19C34.4375 5.9375 42.94 5.9375 47.5 5.9375H66.5C71.06 5.9375 79.5625 5.9375 79.5625 19C79.5625 23.56 79.5625 32.0625 66.5 32.0625ZM47.5 13.0625C42.7975 13.0625 41.5625 13.0625 41.5625 19C41.5625 24.9375 42.7975 24.9375 47.5 24.9375H66.5C72.4375 24.9375 72.4375 23.7025 72.4375 19C72.4375 13.0625 71.2025 13.0625 66.5 13.0625H47.5Z" fill="#DDDDDD"/>
<path d="M71.25 108.063H42.75C16.055 108.063 10.6875 95.8075 10.6875 76V47.5C10.6875 25.84 18.525 16.5775 37.81 15.58C39.71 15.485 41.4675 16.9575 41.5625 18.9525C41.6575 20.9475 40.1375 22.5625 38.19 22.6575C24.7 23.4175 17.8125 27.455 17.8125 47.5V76C17.8125 93.575 21.28 100.938 42.75 100.938H71.25C92.72 100.938 96.1875 93.575 96.1875 76V47.5C96.1875 27.455 89.3 23.4175 75.81 22.6575C73.8625 22.5625 72.3425 20.8525 72.4375 18.905C72.5325 16.9575 74.2425 15.4375 76.19 15.5325C95.475 16.5775 103.312 25.84 103.312 47.4525V75.9525C103.312 95.8075 97.945 108.063 71.25 108.063Z" fill="#DDDDDD"/>
</svg>
