<svg width="114" height="114" viewBox="0 0 114 114" fill="none" xmlns="http://www.w3.org/2000/svg">
<path d="M66.5 32.0625H47.5C42.94 32.0625 34.4375 32.0625 34.4375 19C34.4375 5.9375 42.94 5.9375 47.5 5.9375H66.5C71.06 5.9375 79.5625 5.9375 79.5625 19C79.5625 23.56 79.5625 32.0625 66.5 32.0625ZM47.5 13.0625C42.7975 13.0625 41.5625 13.0625 41.5625 19C41.5625 24.9375 42.7975 24.9375 47.5 24.9375H66.5C72.4375 24.9375 72.4375 23.7025 72.4375 19C72.4375 13.0625 71.2025 13.0625 66.5 13.0625H47.5Z" fill="#DDDDDD"/>
<path d="M66.5 108.062H42.75C16.055 108.062 10.6875 95.807 10.6875 75.9995V47.4995C10.6875 25.8395 18.525 16.577 37.81 15.5795C39.6625 15.4845 41.4675 16.957 41.5625 18.952C41.6575 20.947 40.1375 22.562 38.19 22.657C24.7 23.417 17.8125 27.4545 17.8125 47.4995V75.9995C17.8125 93.5745 21.28 100.937 42.75 100.937H66.5C68.4475 100.937 70.0625 102.552 70.0625 104.5C70.0625 106.447 68.4475 108.062 66.5 108.062Z" fill="#DDDDDD"/>
<path d="M99.7498 74.8125C97.8023 74.8125 96.1873 73.1975 96.1873 71.25V47.5C96.1873 27.455 89.2998 23.4175 75.8098 22.6575C73.8623 22.5625 72.3423 20.8525 72.4373 18.905C72.5323 16.9575 74.2423 15.4375 76.1898 15.5325C95.4748 16.5775 103.312 25.84 103.312 47.4525V71.2025C103.312 73.1975 101.697 74.8125 99.7498 74.8125Z" fill="#DDDDDD"/>
<path d="M71.25 93.8125C69.3025 93.8125 67.6875 92.1975 67.6875 90.25V76C67.6875 74.0525 69.3025 72.4375 71.25 72.4375H85.5C87.4475 72.4375 89.0625 74.0525 89.0625 76C89.0625 77.9475 87.4475 79.5625 85.5 79.5625H74.8125V90.25C74.8125 92.1975 73.1975 93.8125 71.25 93.8125Z" fill="#DDDDDD"/>
<path d="M99.7498 108.063C98.8473 108.063 97.9448 107.73 97.2323 107.018L68.9223 78.7078C67.5448 77.3303 67.5448 75.0503 68.9223 73.6728C70.2998 72.2953 72.5798 72.2953 73.9573 73.6728L102.267 101.983C103.645 103.36 103.645 105.64 102.267 107.018C101.555 107.73 100.652 108.063 99.7498 108.063Z" fill="#DDDDDD"/>
</svg>
