<svg width="114" height="114" viewBox="0 0 114 114" fill="none" xmlns="http://www.w3.org/2000/svg">
<path d="M66.4998 80.3225C65.5973 80.3225 64.6948 79.99 63.9823 79.2775L45.1723 60.4675C43.7948 59.09 43.7948 56.81 45.1723 55.4325C46.5498 54.055 48.8298 54.055 50.2073 55.4325L69.0173 74.2425C70.3948 75.62 70.3948 77.9 69.0173 79.2775C68.3048 79.9425 67.4023 80.3225 66.4998 80.3225Z" fill="#DDDDDD"/>
<path d="M47.4998 80.513C46.5973 80.513 45.6948 80.1805 44.9823 79.468C43.6048 78.0905 43.6048 75.8105 44.9823 74.433L63.7923 55.623C65.1698 54.2455 67.4498 54.2455 68.8273 55.623C70.2048 57.0005 70.2048 59.2805 68.8273 60.658L50.0173 79.468C49.3048 80.1805 48.4023 80.513 47.4998 80.513Z" fill="#DDDDDD"/>
<path d="M66.5 32.0625H47.5C42.94 32.0625 34.4375 32.0625 34.4375 19C34.4375 5.9375 42.94 5.9375 47.5 5.9375H66.5C71.06 5.9375 79.5625 5.9375 79.5625 19C79.5625 23.56 79.5625 32.0625 66.5 32.0625ZM47.5 13.0625C42.7975 13.0625 41.5625 13.0625 41.5625 19C41.5625 24.9375 42.7975 24.9375 47.5 24.9375H66.5C72.4375 24.9375 72.4375 23.7025 72.4375 19C72.4375 13.0625 71.2025 13.0625 66.5 13.0625H47.5Z" fill="#DDDDDD"/>
<path d="M71.25 108.063H42.75C16.055 108.063 10.6875 95.8075 10.6875 76V47.5C10.6875 25.84 18.525 16.5775 37.81 15.58C39.805 15.485 41.4675 16.9575 41.5625 18.9525C41.6575 20.9475 40.1375 22.5625 38.19 22.6575C24.7 23.4175 17.8125 27.455 17.8125 47.5V76C17.8125 93.575 21.28 100.938 42.75 100.938H71.25C92.72 100.938 96.1875 93.575 96.1875 76V47.5C96.1875 27.455 89.3 23.4175 75.81 22.6575C73.8625 22.5625 72.3425 20.8525 72.4375 18.905C72.5325 16.9575 74.2425 15.4375 76.19 15.5325C95.475 16.5775 103.312 25.84 103.312 47.4525V75.9525C103.312 95.8075 97.945 108.063 71.25 108.063Z" fill="#DDDDDD"/>
</svg>
