<svg width="238" height="190" viewBox="0 0 238 190" fill="none" xmlns="http://www.w3.org/2000/svg">
<path fill-rule="evenodd" clip-rule="evenodd" d="M59.9756 127.3H146.608C147.098 127.3 147.576 127.247 148.036 127.147C148.496 127.247 148.973 127.3 149.464 127.3H198.968C202.648 127.3 205.632 124.323 205.632 120.65C205.632 116.977 202.648 114 198.968 114H193.256C189.575 114 186.592 111.023 186.592 107.35C186.592 103.677 189.575 100.7 193.256 100.7H211.344C215.024 100.7 218.008 97.7227 218.008 94.05C218.008 90.3774 215.024 87.4 211.344 87.4H190.4C194.08 87.4 197.064 84.4227 197.064 80.75C197.064 77.0774 194.08 74.1 190.4 74.1H129.472C133.152 74.1 136.136 71.1227 136.136 67.45C136.136 63.7774 133.152 60.8 129.472 60.8H75.2076C71.5272 60.8 68.5436 63.7774 68.5436 67.45C68.5436 71.1227 71.5272 74.1 75.2076 74.1H37.1276C33.4472 74.1 30.4636 77.0774 30.4636 80.75C30.4636 84.4227 33.4472 87.4 37.1276 87.4H60.9276C64.608 87.4 67.5916 90.3774 67.5916 94.05C67.5916 97.7227 64.608 100.7 60.9276 100.7H22.8476C19.1672 100.7 16.1836 103.677 16.1836 107.35C16.1836 111.023 19.1672 114 22.8476 114H59.9756C56.2952 114 53.3116 116.977 53.3116 120.65C53.3116 124.323 56.2952 127.3 59.9756 127.3ZM215.152 127.3C218.832 127.3 221.816 124.323 221.816 120.65C221.816 116.977 218.832 114 215.152 114C211.471 114 208.488 116.977 208.488 120.65C208.488 124.323 211.471 127.3 215.152 127.3Z" fill="#00B99C" fill-opacity="0.4"/>
<path d="M164.22 42.75V48.45" stroke="#00B99C" stroke-opacity="0.4" stroke-width="2.5" stroke-linecap="round" stroke-linejoin="round"/>
<path d="M164.22 56.05V61.75" stroke="#00B99C" stroke-opacity="0.4" stroke-width="2.5" stroke-linecap="round" stroke-linejoin="round"/>
<path d="M154.7 52.25H160.412" stroke="#00B99C" stroke-opacity="0.4" stroke-width="2.5" stroke-linecap="round" stroke-linejoin="round"/>
<path d="M168.028 52.25H173.74" stroke="#00B99C" stroke-opacity="0.4" stroke-width="2.5" stroke-linecap="round" stroke-linejoin="round"/>
<path d="M85.2035 140.6V144.4" stroke="#00B99C" stroke-opacity="0.4" stroke-width="2.5" stroke-linecap="round" stroke-linejoin="round"/>
<path d="M85.2035 152V155.8" stroke="#00B99C" stroke-opacity="0.4" stroke-width="2.5" stroke-linecap="round" stroke-linejoin="round"/>
<path d="M77.5879 148.2H81.3959" stroke="#00B99C" stroke-opacity="0.4" stroke-width="2.5" stroke-linecap="round" stroke-linejoin="round"/>
<path d="M89.0117 148.2H92.8197" stroke="#00B99C" stroke-opacity="0.4" stroke-width="2.5" stroke-linecap="round" stroke-linejoin="round"/>
<path fill-rule="evenodd" clip-rule="evenodd" d="M152.997 124.57C154.321 122.952 155.511 121.26 156.567 119.509C158.89 115.657 160.564 111.519 161.587 107.253C162.622 102.938 162.991 98.4917 162.691 94.0781C162.43 90.2267 161.66 86.4001 160.379 82.7068C159.108 79.0426 157.335 75.5097 155.057 72.2142C153.7 70.2505 152.164 68.371 150.448 66.5984C147.929 63.9957 145.166 61.7707 142.231 59.9247C139.076 57.9412 135.723 56.3952 132.258 55.2884C127.919 53.9023 123.405 53.205 118.891 53.2C115.379 53.196 111.866 53.6111 108.435 54.4468C104.572 55.3876 100.812 56.8615 97.2721 58.8707C94.1601 60.6369 91.2178 62.8168 88.5246 65.4119C85.14 68.6731 82.3985 72.3493 80.3024 76.2836C78.2502 80.1354 76.8168 84.2347 76.0044 88.4342C75.1674 92.7608 74.9896 97.1936 75.4736 101.572C76.1008 107.246 77.8397 112.829 80.6957 117.97C82.5232 121.259 84.8081 124.367 87.5519 127.202C91.9076 131.702 96.9929 135.073 102.439 137.309C109.063 140.027 116.221 141.065 123.25 140.41C129.15 139.86 134.96 138.118 140.288 135.176" fill="white"/>
<path d="M152.997 124.57C154.321 122.952 155.511 121.26 156.567 119.509C158.89 115.657 160.564 111.519 161.587 107.253C162.622 102.938 162.991 98.4917 162.691 94.0781C162.43 90.2267 161.66 86.4001 160.379 82.7068C159.108 79.0426 157.335 75.5097 155.057 72.2142C153.7 70.2505 152.164 68.371 150.448 66.5984C147.929 63.9957 145.166 61.7707 142.231 59.9247C139.076 57.9412 135.723 56.3952 132.258 55.2884C127.919 53.9023 123.405 53.205 118.891 53.2C115.379 53.196 111.866 53.6111 108.435 54.4468C104.572 55.3876 100.812 56.8615 97.2721 58.8707C94.1601 60.6369 91.2178 62.8168 88.5246 65.4119C85.14 68.6731 82.3985 72.3493 80.3024 76.2836C78.2502 80.1354 76.8168 84.2347 76.0044 88.4342C75.1674 92.7608 74.9896 97.1936 75.4736 101.572C76.1008 107.246 77.8397 112.829 80.6957 117.97C82.5232 121.259 84.8081 124.367 87.5519 127.202C91.9076 131.702 96.9929 135.073 102.439 137.309C109.063 140.027 116.221 141.065 123.25 140.41C129.15 139.86 134.96 138.118 140.288 135.176" stroke="#00B99C" stroke-width="2.5" stroke-linecap="round" stroke-linejoin="round"/>
<path fill-rule="evenodd" clip-rule="evenodd" d="M143.467 133.359C146.234 131.583 148.694 129.366 150.294 127.577L143.467 133.359Z" fill="white"/>
<path d="M143.467 133.359C146.234 131.583 148.694 129.366 150.294 127.577" stroke="#00B99C" stroke-width="2.5" stroke-linecap="round"/>
<path d="M158.984 99.3862C158.711 99.391 158.438 99.3934 158.165 99.3934C134.124 99.3934 114.438 80.6894 112.789 57C93.6528 60.0121 79.0156 76.6199 79.0156 96.6563C79.0156 118.827 96.9375 136.8 119.045 136.8C140.238 136.8 157.584 120.284 158.984 99.3862Z" fill="#00B99C" fill-opacity="0.2"/>
<path fill-rule="evenodd" clip-rule="evenodd" d="M103.79 95.3542C102.625 94.2811 100.819 94.3635 99.7552 95.5383C98.6914 96.713 98.773 98.5353 99.9376 99.6085L113.379 111.995C115.009 113.497 117.538 113.382 119.028 111.737C119.09 111.667 119.09 111.667 119.15 111.595L138.332 88.323C139.34 87.0995 139.175 85.283 137.962 84.2658C136.749 83.2485 134.948 83.4157 133.94 84.6391L115.906 106.519L103.79 95.3542Z" fill="white" stroke="#00B99C" stroke-width="2.5" stroke-linecap="round"/>
<path d="M105.944 62.3618C106.591 62.1196 106.919 61.3998 106.676 60.7541C106.433 60.1084 105.712 59.7813 105.065 60.0236L105.944 62.3618ZM100.083 63.7267L100.701 64.8121L100.083 63.7267ZM92.4299 69.4497L91.5606 68.5514L92.4299 69.4497ZM88.7546 71.5489C88.3097 72.0765 88.3776 72.8643 88.9064 73.3083C89.4352 73.7524 90.2245 73.6846 90.6695 73.157L88.7546 71.5489ZM88.1376 76.5352C88.519 75.9601 88.3609 75.1854 87.7846 74.8047C87.2082 74.4241 86.4319 74.5818 86.0505 75.1569L88.1376 76.5352ZM85.2369 78.9619L86.3418 79.548L85.2369 78.9619ZM82.9286 80.8398C82.6479 81.47 82.9322 82.2079 83.5637 82.4881C84.1952 82.7683 84.9347 82.4847 85.2154 81.8545L82.9286 80.8398ZM105.065 60.0236C103.147 60.7415 101.274 61.6139 99.4638 62.6413L100.701 64.8121C102.395 63.8505 104.149 63.0339 105.944 62.3618L105.065 60.0236ZM99.4638 62.6413C96.651 64.2378 93.9927 66.2077 91.5606 68.5514L93.2991 70.3479C95.5793 68.1506 98.0689 66.3061 100.701 64.8121L99.4638 62.6413ZM91.5606 68.5514C90.5637 69.512 89.6284 70.5128 88.7546 71.5489L90.6695 73.157C91.4878 72.1866 92.3644 71.2487 93.2991 70.3479L91.5606 68.5514ZM86.0505 75.1569C85.3556 76.2049 84.716 77.2792 84.132 78.3757L86.3418 79.548C86.8885 78.5217 87.4871 77.5161 88.1376 76.5352L86.0505 75.1569ZM84.132 78.3757C83.7006 79.1856 83.2995 80.0075 82.9286 80.8398L85.2154 81.8545C85.5626 81.0754 85.938 80.306 86.3418 79.548L84.132 78.3757Z" fill="#00B99C"/>
</svg>
