<svg width="98" height="98" viewBox="0 0 98 98" fill="none" xmlns="http://www.w3.org/2000/svg">
<path d="M13.6659 88.1091H84.3327C92.8639 88.1091 97.2127 83.8426 97.2127 75.3936V32.4504C97.2127 24.0014 92.8639 19.7769 84.3327 19.7769H74.7357C71.5367 19.7769 70.5532 19.1206 68.7069 17.0696L65.3837 13.3771C63.3747 11.1231 61.2834 9.89111 57.0169 9.89111H40.6929C36.4684 9.89111 34.3754 11.1231 32.3262 13.3771L29.0029 17.0696C27.1987 19.0786 26.1732 19.7769 22.9742 19.7769H13.6642C5.13293 19.7769 0.78418 24.0014 0.78418 32.4504V75.3936C0.78418 83.8426 5.13468 88.1091 13.6659 88.1091ZM48.9792 74.9841C36.5909 74.9841 26.6247 65.0161 26.6247 52.5491C26.6247 40.0786 36.5909 30.1141 48.9774 30.1141C61.4462 30.1141 71.3722 40.0786 71.3722 52.5491C71.3722 65.0161 61.4059 74.9841 48.9774 74.9841M78.4667 42.5391C75.6772 42.5391 73.3812 40.2851 73.3812 37.4956C73.3812 36.1469 73.917 34.8533 74.8707 33.8996C75.8244 32.9459 77.1179 32.4101 78.4667 32.4101C79.8154 32.4101 81.109 32.9459 82.0627 33.8996C83.0164 34.8533 83.5522 36.1469 83.5522 37.4956C83.5522 40.2851 81.2562 42.5391 78.4667 42.5391ZM48.9792 68.7506C51.1075 68.7531 53.2154 68.3358 55.1822 67.5225C57.149 66.7092 58.9361 65.5159 60.441 64.011C61.946 62.506 63.1393 60.719 63.9526 58.7522C64.7659 56.7854 65.1832 54.6774 65.1807 52.5491C65.183 50.4209 64.7655 48.3132 63.9521 46.3466C63.1387 44.38 61.9453 42.5932 60.4404 41.0884C58.9355 39.5836 57.1485 38.3905 55.1818 37.5773C53.2151 36.7641 51.1074 36.3468 48.9792 36.3494C40.0367 36.3494 32.8197 43.5681 32.8197 52.5491C32.8197 61.5319 40.0787 68.7506 48.9792 68.7506Z" fill="white"/>
</svg>
