<svg width="151" height="146" viewBox="0 0 151 146" fill="none" xmlns="http://www.w3.org/2000/svg">
<path fill-rule="evenodd" clip-rule="evenodd" d="M100.695 0.0161742C103.096 -0.13464 105.837 0.795379 107.931 1.71597C114.09 4.4267 119.993 7.66214 125.615 10.8198C127.46 11.8551 129.353 13.0192 131.344 14.0215C135.336 16.0323 139.108 17.6277 143.099 20.1232C145.249 21.4671 147.574 23.0884 148.424 25.2234C150.027 29.2419 148.052 34.2424 146.616 37.129C144.906 40.564 143.12 43.7774 141.491 46.9288C138.055 53.5859 134.761 59.6224 131.142 66.4365C127.506 73.2852 124.299 79.7427 121.095 86.2442C118.71 91.0773 115.942 96.0958 113.358 100.95C111.904 103.671 110.721 106.347 107.829 107.451C107.249 107.672 106.078 107.859 105.016 107.75C102.672 107.511 100.392 106.138 98.2841 105.151C96.1632 104.157 94.0707 103.007 92.1542 101.948C84.4691 97.7029 75.3598 93.5972 67.7363 89.0437C64.061 86.849 59.6551 84.209 57.7883 80.4418C55.6437 76.1082 58.4621 70.0372 60.2019 66.537C61.9212 63.0762 63.6034 60.1172 65.3258 57.2321C67.1839 54.1231 68.9845 50.9238 70.6517 48.0309C74.05 42.1358 77.8279 35.5761 80.6983 29.1249C82.1162 25.9397 83.8497 22.3775 85.4214 19.4209C87.8082 14.9374 90.498 9.9872 93.3606 5.61751C94.3453 4.11172 95.4586 2.54153 96.5758 1.61543C97.469 0.876286 98.7946 0.136354 100.695 0.0161742Z" fill="#C1D5E8"/>
<path d="M122.772 16.2115C122.859 16.235 122.989 16.2154 122.993 16.3152C124.492 16.0222 125.2 14.4151 125.852 13.2738C126.165 12.7239 126.522 12.1269 126.803 11.4985C126.405 11.2676 126.008 11.0398 125.615 10.8199C125.401 10.6989 125.183 10.5787 124.969 10.4578C124.577 11.0453 124.212 11.6894 123.871 12.3257C123.265 13.474 122.234 14.8298 122.772 16.2115Z" fill="white"/>
<path d="M119.143 22.4042C118.287 23.7097 117.05 25.4354 116.394 26.9177C115.908 28.0205 115.837 29.1744 116.836 29.2278C117.598 29.2694 118.271 27.9357 118.593 27.4439C119.13 26.6231 119.682 25.9279 120.025 25.3451C120.992 23.6948 121.998 22.4042 121.892 20.4107C120.524 19.4029 119.752 21.4789 119.143 22.4042Z" fill="white"/>
<path d="M112.765 34.5817C111.368 36.1566 109.784 38.7691 108.917 40.8813C108.644 41.5427 108.254 42.479 109.026 42.9809C109.976 43.0382 110.492 42.1153 110.896 41.5112C111.379 40.7855 111.734 39.9992 112.105 39.3056C112.885 37.8548 114.011 36.2838 113.975 34.5817C113.739 34.3711 112.963 34.2266 112.765 34.5817Z" fill="white"/>
<path d="M104.518 48.7537C103.837 49.474 103.31 50.7276 102.539 52.1124C102.188 52.7424 100.382 55.0384 101.438 55.6801C102.051 56.0548 103.016 55.0187 103.308 54.6307C103.887 53.8641 104.188 53.1642 104.517 52.6364C105.397 51.2233 106.338 49.9837 106.277 48.3326C105.649 47.8496 104.922 48.3256 104.518 48.7537Z" fill="white"/>
<path d="M98.2492 61.9805C98.2484 62.118 98.0567 62.0764 98.0298 62.1903C96.8274 63.1219 96.1094 64.2655 95.2817 65.8632C94.8761 66.6463 92.9761 69.6155 94.0729 70.1677C94.8785 70.5746 95.5547 69.4451 95.9413 68.907C96.9402 67.5237 97.6519 66.1389 98.3612 64.7109C98.7218 63.9804 99.3633 63.209 99.1305 62.2947C98.8875 62.1408 98.6579 61.9766 98.2492 61.9805Z" fill="white"/>
<path d="M90.3323 76.2567C89.5503 77.2951 88.8189 78.3201 87.9147 79.9304C87.5573 80.5627 85.5508 83.5688 87.0334 83.8139C87.7569 83.9333 88.3542 82.9145 88.6848 82.4487C89.1495 81.796 89.5756 81.0599 89.8936 80.5596C90.7749 79.174 91.6752 77.9337 91.5426 76.2575C91.3067 76.0438 90.5303 75.9016 90.3323 76.2567Z" fill="white"/>
<path d="M83.8448 90.1129C83.6089 89.9 82.8325 89.7586 82.6337 90.1129C81.8667 90.9439 81.256 91.6823 80.5467 93.2595C80.3984 93.5855 79.8271 94.5815 79.5928 95.4424C80.1064 95.7048 80.6217 95.9648 81.1353 96.2256C81.7965 95.4778 82.3623 94.2846 82.524 93.9955C83.2523 92.7113 83.9679 91.555 83.8448 90.1129Z" fill="white"/>
<path opacity="0.38" fill-rule="evenodd" clip-rule="evenodd" d="M102.296 80.7309C102.108 81.4709 101.198 81.3805 100.703 81.5235C97.1068 82.5486 93.7393 84.8611 93.6485 89.5654C93.5546 94.5564 97.7017 98.2364 102.752 97.7211C104.947 97.4972 106.6 96.4015 107.758 95.1164C108.174 94.6546 108.515 93.6499 109.579 94.0969C110.452 95.7692 108.55 97.055 107.419 97.8342C100.792 102.388 91.1166 97.48 91.9427 88.6597C92.319 84.6466 95.6448 80.738 99.7942 80.2761C100.769 80.1685 101.727 80.2054 102.296 80.7309Z" fill="#334F70"/>
<path fill-rule="evenodd" clip-rule="evenodd" d="M101.272 84.0151C102.304 83.8996 104.067 84.0496 105.027 84.5814C106.934 85.6371 108.597 88.4012 107.871 91.1513C107.205 93.6742 102.957 96.9348 99.2245 95.1172C98.1309 94.5838 96.7477 93.038 96.3784 91.6037C95.4829 88.1279 97.6385 85.0778 99.7925 84.2421C100.213 84.0771 100.71 84.0787 101.272 84.0151Z" fill="white"/>
<path opacity="0.38" fill-rule="evenodd" clip-rule="evenodd" d="M101.386 84.8084C102.556 86.4587 103.252 89.0901 103.663 91.6037C103.783 92.3483 104.228 93.3373 103.548 93.9845C102.582 94.1966 102.346 93.1362 102.069 92.3994C101.818 91.7278 101.581 90.8559 101.386 90.1325C100.968 88.578 100.326 86.2859 100.589 85.1493C100.585 84.9537 100.673 84.8547 100.817 84.8076C101.008 84.8084 101.198 84.8084 101.386 84.8084Z" fill="#334F70"/>
<path opacity="0.38" fill-rule="evenodd" clip-rule="evenodd" d="M114.32 61.0882C114.132 61.8281 113.221 61.7394 112.728 61.8807C109.131 62.9058 105.763 65.2191 105.673 69.9226C105.578 74.9128 109.726 78.5929 114.777 78.0791C116.972 77.8569 118.625 76.758 119.782 75.4745C120.198 75.0118 120.54 74.0095 121.604 74.4541C122.475 76.1288 120.575 77.4138 119.442 78.193C112.818 82.7465 103.141 77.8396 103.966 69.0185C104.343 65.0047 107.669 61.0961 111.818 60.6334C112.793 60.525 113.75 60.5643 114.32 61.0882Z" fill="#334F70"/>
<path fill-rule="evenodd" clip-rule="evenodd" d="M113.297 64.3724C114.328 64.2561 116.091 64.4085 117.052 64.9411C118.956 65.9928 120.621 68.7578 119.895 71.5085C119.229 74.0323 114.98 77.2921 111.247 75.4745C110.155 74.9404 108.772 73.3953 108.403 71.9626C107.507 68.486 109.665 65.4375 111.816 64.5994C112.238 64.436 112.733 64.436 113.297 64.3724Z" fill="white"/>
<path opacity="0.38" fill-rule="evenodd" clip-rule="evenodd" d="M113.409 65.1649C114.579 66.816 115.276 69.4474 115.686 71.9625C115.807 72.7056 116.249 73.6953 115.572 74.3402C114.608 74.5531 114.369 73.4935 114.093 72.7527C113.842 72.0835 113.606 71.2148 113.41 70.4882C112.993 68.9353 112.351 66.6416 112.614 65.5058C112.61 65.3094 112.699 65.2105 112.842 65.1633C113.031 65.1649 113.221 65.1649 113.409 65.1649Z" fill="#334F70"/>
<path opacity="0.38" fill-rule="evenodd" clip-rule="evenodd" d="M124.53 41.6474C124.342 42.3905 123.432 42.2994 122.939 42.4423C119.342 43.465 115.975 45.7807 115.883 50.4842C115.789 55.4736 119.936 59.1529 124.987 58.6399C127.182 58.4169 128.835 57.3187 129.994 56.0337C130.409 55.5742 130.75 54.5703 131.814 55.0149C132.687 56.6888 130.785 57.9754 129.653 58.7538C123.028 63.3065 113.353 58.4011 114.177 49.5777C114.554 45.5662 117.88 41.6576 122.03 41.1965C123.005 41.0858 123.962 41.1258 124.53 41.6474Z" fill="#334F70"/>
<path fill-rule="evenodd" clip-rule="evenodd" d="M123.507 44.9339C124.539 44.8185 126.303 44.9693 127.262 45.501C129.168 46.5544 130.833 49.3185 130.107 52.0709C129.442 54.5947 125.193 57.8521 121.461 56.0337C120.368 55.5027 118.985 53.9561 118.615 52.5233C117.719 49.0452 119.877 45.9967 122.03 45.1609C122.448 44.9968 122.944 44.9968 123.507 44.9339Z" fill="white"/>
<path opacity="0.38" fill-rule="evenodd" clip-rule="evenodd" d="M123.622 45.725C124.789 47.3776 125.486 50.0075 125.896 52.5234C126.018 53.2672 126.462 54.2554 125.782 54.9011C124.819 55.1139 124.58 54.0551 124.303 53.3152C124.053 52.6451 123.817 51.7748 123.622 51.0498C123.203 49.4953 122.561 47.2033 122.824 46.0651C122.82 45.8718 122.91 45.7713 123.053 45.7234C123.241 45.725 123.432 45.725 123.622 45.725Z" fill="#334F70"/>
<path opacity="0.38" fill-rule="evenodd" clip-rule="evenodd" d="M135.366 20.6417C135.177 21.3856 134.267 21.2945 133.773 21.4359C130.177 22.4609 126.81 24.7734 126.718 29.4769C126.623 34.4687 130.771 38.1495 135.821 37.6343C138.018 37.4112 139.671 36.3131 140.827 35.0296C141.244 34.5654 141.584 33.5646 142.648 34.0092C143.522 35.6823 141.62 36.9697 140.488 37.7497C133.862 42.3001 124.188 37.3963 125.012 28.5728C125.389 24.5598 128.717 20.6535 132.865 20.1924C133.837 20.0809 134.795 20.1194 135.366 20.6417Z" fill="#334F70"/>
<path fill-rule="evenodd" clip-rule="evenodd" d="M134.343 23.929C135.375 23.812 137.138 23.9636 138.097 24.4961C140.003 25.5495 141.669 28.3128 140.941 31.0652C140.276 33.5882 136.026 36.8464 132.293 35.0296C131.201 34.4978 129.818 32.9511 129.449 31.5176C128.554 28.041 130.712 24.9926 132.864 24.156C133.283 23.9918 133.779 23.9918 134.343 23.929Z" fill="white"/>
<path opacity="0.38" fill-rule="evenodd" clip-rule="evenodd" d="M134.456 24.7201C135.626 26.3712 136.322 29.0018 136.733 31.5177C136.853 32.2616 137.298 33.2505 136.619 33.8954C135.655 34.1075 135.417 33.0471 135.14 32.3095C134.889 31.6379 134.652 30.7684 134.457 30.0457C134.039 28.4912 133.397 26.1992 133.659 25.0602C133.655 24.8662 133.746 24.7664 133.889 24.7185C134.077 24.7201 134.267 24.7201 134.456 24.7201Z" fill="#334F70"/>
<path opacity="0.38" fill-rule="evenodd" clip-rule="evenodd" d="M73.9388 65.7721C73.7494 66.5136 72.8397 66.4256 72.3465 66.5678C68.7494 67.5913 65.3818 69.9061 65.2911 74.6096C65.1964 79.5983 69.3451 83.2791 74.3941 82.7654C76.5899 82.5423 78.2437 81.4434 79.4012 80.1591C79.8178 79.6965 80.1563 78.695 81.2222 79.1411C82.0941 80.8134 80.1934 82.1001 79.0611 82.8769C72.4357 87.4312 62.7599 82.5242 63.5868 73.7032C63.9632 69.6917 67.2881 65.7815 71.4368 65.3196C72.4112 65.2112 73.3691 65.2497 73.9388 65.7721Z" fill="#334F70"/>
<path fill-rule="evenodd" clip-rule="evenodd" d="M72.9152 69.0592C73.9472 68.9422 75.7099 69.0953 76.6701 69.6256C78.5756 70.6797 80.2389 73.443 79.5146 76.1946C78.8494 78.7184 74.5982 81.9782 70.8669 80.159C69.7741 79.628 68.3901 78.079 68.0224 76.6478C67.1269 73.1705 69.2833 70.1212 71.4358 69.2862C71.8563 69.1213 72.3518 69.1213 72.9152 69.0592Z" fill="white"/>
<path opacity="0.38" fill-rule="evenodd" clip-rule="evenodd" d="M73.0282 69.8502C74.1975 71.5029 74.8942 74.1319 75.3053 76.6478C75.426 77.3925 75.8703 78.3822 75.1909 79.0255C74.2251 79.2376 73.9868 78.1772 73.7107 77.4396C73.459 76.7712 73.2239 75.8993 73.0282 75.1735C72.6092 73.6206 71.9685 71.3261 72.2313 70.1895C72.2257 69.9963 72.3165 69.8965 72.4593 69.8486C72.6502 69.8502 72.8396 69.8502 73.0282 69.8502Z" fill="#334F70"/>
<path opacity="0.38" fill-rule="evenodd" clip-rule="evenodd" d="M85.9627 46.1325C85.7741 46.8725 84.8628 46.7829 84.3689 46.9251C80.7741 47.9486 77.4058 50.2634 77.315 54.9654C77.2196 59.9564 81.369 63.638 86.4188 63.1227C88.6138 62.8996 90.2669 61.8007 91.4259 60.5188C91.841 60.0538 92.181 59.0515 93.2446 59.4977C94.1181 61.1715 92.2165 62.4566 91.0843 63.2366C84.4589 67.7885 74.7831 62.8808 75.6092 54.0597C75.9863 50.0482 79.3113 46.1388 83.4607 45.6777C84.4344 45.5701 85.3938 45.6086 85.9627 46.1325Z" fill="#334F70"/>
<path fill-rule="evenodd" clip-rule="evenodd" d="M84.9384 49.4168C85.9712 49.299 87.7355 49.4521 88.6941 49.9831C90.5981 51.0373 92.2645 53.8006 91.5378 56.5522C90.8726 59.0768 86.623 62.3373 82.8893 60.5189C81.7981 59.9856 80.4141 58.4397 80.0457 57.0054C79.1493 53.5312 81.3065 50.4796 83.459 49.643C83.8795 49.4788 84.3758 49.4804 84.9384 49.4168Z" fill="white"/>
<path opacity="0.38" fill-rule="evenodd" clip-rule="evenodd" d="M85.0514 50.2101C86.2215 51.8604 86.9175 54.491 87.3293 57.0053C87.45 57.75 87.8935 58.7397 87.2149 59.3838C86.2491 59.5967 86.0124 58.5378 85.7363 57.7971C85.4854 57.1279 85.2479 56.2583 85.0522 55.5326C84.6356 53.9781 83.9933 51.6852 84.2561 50.5486C84.2513 50.3546 84.3413 50.2548 84.4849 50.2085C84.6735 50.2101 84.8628 50.2101 85.0514 50.2101Z" fill="#334F70"/>
<path opacity="0.38" fill-rule="evenodd" clip-rule="evenodd" d="M96.174 26.6924C95.9839 27.4332 95.0741 27.3444 94.581 27.485C90.9846 28.5109 87.6163 30.8241 87.5264 35.5269C87.4309 40.5179 91.5796 44.1971 96.6285 43.6842C98.8244 43.4587 100.477 42.3622 101.636 41.0779C102.051 40.6161 102.392 39.613 103.456 40.0584C104.328 41.733 102.427 43.0173 101.295 43.7965C94.6694 48.3508 84.9936 43.443 85.8213 34.622C86.1968 30.6089 89.5218 26.7019 93.6705 26.2384C94.6457 26.1308 95.6036 26.1685 96.174 26.6924Z" fill="#334F70"/>
<path fill-rule="evenodd" clip-rule="evenodd" d="M95.1493 29.9789C96.1813 29.8611 97.9456 30.0135 98.9043 30.5429C100.811 31.597 102.475 34.3627 101.749 37.1135C101.083 39.6357 96.8331 42.8963 93.101 41.0779C92.0082 40.5461 90.6258 38.9995 90.2574 37.5667C89.3618 34.0902 91.5174 31.0417 93.6699 30.2035C94.0904 30.0402 94.5867 30.0402 95.1493 29.9789Z" fill="white"/>
<path opacity="0.38" fill-rule="evenodd" clip-rule="evenodd" d="M95.263 30.7691C96.4331 32.4202 97.1283 35.0509 97.5401 37.5668C97.6609 38.3099 98.1051 39.3004 97.4257 39.946C96.46 40.1573 96.2225 39.0977 95.9471 38.3586C95.6962 37.6878 95.4595 36.8174 95.263 36.0932C94.8448 34.5387 94.2034 32.2467 94.4669 31.1108C94.4622 30.9168 94.5513 30.8139 94.6957 30.7676C94.8859 30.7691 95.0752 30.7691 95.263 30.7691Z" fill="#334F70"/>
<path opacity="0.38" fill-rule="evenodd" clip-rule="evenodd" d="M107.007 5.68674C106.819 6.42903 105.909 6.33949 105.415 6.48009C101.821 7.50516 98.4512 9.81843 98.362 14.5219C98.2642 19.5114 102.414 23.1922 107.463 22.6769C109.658 22.4546 111.311 21.3573 112.47 20.073C112.887 19.6111 113.226 18.6081 114.291 19.0534C115.164 20.7273 113.261 22.0124 112.13 22.7908C105.503 27.3451 95.8285 22.4381 96.6546 13.6163C97.0309 9.60242 100.357 5.69538 104.507 5.2343C105.481 5.1259 106.439 5.16361 107.007 5.68674Z" fill="#334F70"/>
<path fill-rule="evenodd" clip-rule="evenodd" d="M105.984 8.97158C107.016 8.85533 108.781 9.00693 109.74 9.5387C111.646 10.592 113.309 13.3554 112.586 16.1085C111.918 18.6308 107.669 21.8906 103.937 20.0729C102.844 19.5419 101.46 17.9937 101.093 16.5594C100.197 13.086 102.353 10.0359 104.507 9.19859C104.926 9.03521 105.421 9.0352 105.984 8.97158Z" fill="white"/>
<path opacity="0.38" fill-rule="evenodd" clip-rule="evenodd" d="M106.099 9.76495C107.267 11.4145 107.964 14.0467 108.375 16.5594C108.495 17.3033 108.939 18.2946 108.261 18.9403C107.295 19.1516 107.057 18.0919 106.782 17.3528C106.53 16.682 106.294 15.8148 106.099 15.0882C105.68 13.5353 105.037 11.2417 105.302 10.1035C105.297 9.91026 105.387 9.8105 105.53 9.76416C105.721 9.76495 105.909 9.76495 106.099 9.76495Z" fill="#334F70"/>
<path fill-rule="evenodd" clip-rule="evenodd" d="M0.541992 67.6729L3.74543 71.7064C5.32347 73.6921 9.87377 72.7267 13.9088 69.547C17.9439 66.3721 19.937 62.1854 18.3573 60.1997L15.1531 56.167L0.541992 67.6729Z" fill="#E8BD54"/>
<path opacity="0.14" fill-rule="evenodd" clip-rule="evenodd" d="M0.541992 67.6729L3.74543 71.7064C5.32347 73.6921 9.87377 72.7267 13.9088 69.547C17.9439 66.3721 19.937 62.1854 18.3573 60.1997L15.1531 56.167L0.541992 67.6729Z" fill="#334F70"/>
<path fill-rule="evenodd" clip-rule="evenodd" d="M15.1525 56.1669C16.7321 58.1518 14.7406 62.3401 10.7032 65.5158C6.66888 68.6939 2.11779 69.6601 0.541322 67.6728C-1.03751 65.6878 0.954771 61.5012 4.98983 58.3246C9.02569 55.1481 13.5752 54.1804 15.1525 56.1669Z" fill="#E8BD54"/>
<path d="M14.0526 55.3862C13.6739 55.2425 13.2454 55.1632 12.7775 55.1404C11.9546 55.8897 10.9967 56.9242 10.0641 57.9194C8.48525 59.6004 6.66892 61.5736 5.21712 63.2498C3.83396 64.8459 1.91269 66.9062 1.17969 68.2259C1.46531 68.4018 1.79355 68.5275 2.16044 68.6045C4.97962 66.3195 8.96261 61.6089 12.0974 57.7875C12.686 57.0688 13.5295 56.1757 14.0526 55.3862Z" fill="white"/>
<path fill-rule="evenodd" clip-rule="evenodd" d="M54.1382 42.9087L54.4609 48.0403C54.6187 50.5665 58.9102 52.3558 64.0452 52.0385C69.1801 51.7172 73.2136 49.411 73.0558 46.8833L72.7347 41.7517L54.1382 42.9087Z" fill="#E8BD54"/>
<path opacity="0.14" fill-rule="evenodd" clip-rule="evenodd" d="M54.1382 42.9087L54.4609 48.0403C54.6266 50.5665 58.9062 52.3574 64.0452 52.0385C69.1801 51.7172 73.2136 49.411 73.0558 46.8833L72.7347 41.7517L54.1382 42.9087Z" fill="#334F70"/>
<path fill-rule="evenodd" clip-rule="evenodd" d="M72.7347 41.7517C72.8917 44.2818 68.859 46.5872 63.7225 46.9061C58.5883 47.2242 54.2968 45.4365 54.1382 42.9087C53.9812 40.3795 58.0155 38.0748 63.1504 37.7536C68.2846 37.4347 72.5753 39.2256 72.7347 41.7517Z" fill="#E8BD54"/>
<path d="M72.2755 40.4863C72.0498 40.1556 71.7445 39.8469 71.3689 39.5618C70.2658 39.7094 68.8866 40.0142 67.5492 40.3041C65.2887 40.7863 62.6675 41.377 60.5127 41.9292C58.462 42.4539 55.7052 43.0564 54.3457 43.7241C54.4814 44.0304 54.6795 44.3195 54.9343 44.5921C58.5591 44.314 64.5304 42.7069 69.293 41.3472C70.1916 41.0919 71.3957 40.8405 72.2755 40.4863Z" fill="white"/>
<path fill-rule="evenodd" clip-rule="evenodd" d="M26.571 56.2746C26.0653 55.907 24.9086 55.1678 24.1566 54.4719C21.8716 52.3558 20.1626 48.5524 23.6548 46.6288C24.9235 45.9305 26.9924 46.0161 28.5049 46.5298C30.6053 47.2438 33.7046 49.0991 36.28 50.9497C38.894 52.8318 42.2158 55.3257 43.0466 57.2588C43.8972 59.243 43.3551 62.0896 40.6953 63.2065C38.2793 64.2214 35.6195 62.3802 32.682 60.5194C30.524 59.1511 28.6438 57.7757 26.571 56.2746Z" fill="#00B99C"/>
<path d="M24.1574 54.4719C24.9086 55.1678 26.0661 55.907 26.5718 56.2746C27.6631 57.064 28.6991 57.8189 29.7516 58.5564C29.5567 55.4585 30.3355 51.4171 35.3679 50.3104C33.0016 48.686 30.3631 47.1598 28.5065 46.5298C26.994 46.0161 24.9251 45.9305 23.6564 46.6288C20.1634 48.5524 21.8724 52.3558 24.1574 54.4719Z" fill="#04917B"/>
<path fill-rule="evenodd" clip-rule="evenodd" d="M32.8101 58.1019C32.3998 57.2669 31.0711 56.4217 29.7163 55.6731C29.1356 55.3519 28.1903 54.8476 27.8416 55.3307C27.4242 55.9104 28.4081 56.6558 28.7624 56.9205C29.8796 57.7563 31.4001 58.541 32.3327 58.7248C32.5465 58.6706 32.7722 58.354 32.8101 58.1019Z" fill="white"/>
<path fill-rule="evenodd" clip-rule="evenodd" d="M30.5259 54.4115C31.6195 53.3802 28.9802 51.4164 28.3482 52.4871C28.0729 52.9529 28.9921 54.3793 29.7669 54.6252C30.0478 54.7132 30.3358 54.5914 30.5259 54.4115Z" fill="white"/>
<path d="M51.7048 15.3356C50.7801 17.7148 50.0013 20.1506 49.6786 23.0177C49.3559 25.8776 50.3753 28.1163 52.2911 28.7203C54.4104 29.3872 56.3664 27.5523 57.516 26.1188C59.0648 24.1873 60.2089 21.4239 61.1652 18.6653C58.6364 14.4354 54.3244 14.686 51.7048 15.3356Z" fill="#0ADCBB"/>
<path d="M59.6261 3.81165C59.3026 3.85485 58.6469 3.95854 58.3202 4.11171C55.722 5.34257 54.0643 9.60543 52.8941 12.4159C52.4854 13.3962 52.0854 14.3624 51.7051 15.3356C54.3246 14.686 58.6366 14.4354 61.1647 18.6653C61.5474 17.564 61.9016 16.462 62.237 15.4165C62.8776 13.4323 63.6911 11.3563 63.8458 9.31322C64.1211 5.69918 62.5226 3.43304 59.6261 3.81165Z" fill="#04917B"/>
<path fill-rule="evenodd" clip-rule="evenodd" d="M57.4764 8.14521C57.4993 9.17577 56.6219 10.6816 55.6695 12.1088C55.2608 12.7176 54.5854 13.6955 53.9968 13.3954C53.2883 13.0325 53.8784 11.8025 54.0907 11.3618C54.7645 9.96912 55.8605 8.42406 56.6882 7.77367C56.9264 7.71712 57.3131 7.91506 57.4764 8.14521Z" fill="white"/>
<path fill-rule="evenodd" clip-rule="evenodd" d="M57.1106 12.9415C58.7178 13.4041 57.1216 16.6789 55.9483 15.9405C55.4394 15.6216 55.6177 13.7513 56.2545 13.1127C56.4841 12.8865 56.8328 12.8606 57.1106 12.9415Z" fill="white"/>
<path fill-rule="evenodd" clip-rule="evenodd" d="M51.6733 20.6692C52.2556 20.7744 52.4433 21.611 52.3084 22.4554C52.2011 23.134 51.6827 24.3845 50.9765 24.0209C50.6641 23.8622 50.4274 23.2126 50.5213 22.5049C50.6278 21.6793 50.9205 20.5356 51.6733 20.6692Z" fill="white"/>
<path fill-rule="evenodd" clip-rule="evenodd" d="M141.127 44.0664L136.481 46.3098C134.194 47.4142 134.158 52.0462 136.404 56.6547C138.65 61.2616 142.326 64.1004 144.614 62.9975L149.26 60.7518L141.127 44.0664Z" fill="#E8BD54"/>
<path opacity="0.14" fill-rule="evenodd" clip-rule="evenodd" d="M141.127 44.0664L136.481 46.3098C134.194 47.4142 134.158 52.0462 136.404 56.6547C138.65 61.2616 142.326 64.1004 144.614 62.9975L149.26 60.7518L141.127 44.0664Z" fill="#334F70"/>
<path fill-rule="evenodd" clip-rule="evenodd" d="M149.261 60.7526C146.972 61.8586 143.296 59.019 141.051 54.4121C138.804 49.8036 138.838 45.1716 141.127 44.0672C143.415 42.9628 147.092 45.8016 149.338 50.4093C151.584 55.0177 151.549 59.6474 149.261 60.7526Z" fill="#E8BD54"/>
<path d="M150.263 59.8517C150.485 59.5163 150.658 59.1157 150.779 58.6625C150.221 57.7018 149.413 56.5495 148.639 55.4278C147.331 53.5309 145.788 51.3386 144.457 49.5634C143.19 47.8761 141.583 45.5652 140.447 44.5637C140.213 44.8064 140.019 45.0986 139.864 45.4388C141.497 48.6711 145.26 53.5592 148.33 57.4293C148.909 58.1629 149.603 59.1731 150.263 59.8517Z" fill="white"/>
<path fill-rule="evenodd" clip-rule="evenodd" d="M118.23 108.866L121.14 113.115C122.572 115.205 127.179 114.563 131.43 111.677C135.68 108.79 137.964 104.757 136.534 102.665L133.624 98.416L118.23 108.866Z" fill="#E8BD54"/>
<path opacity="0.14" fill-rule="evenodd" clip-rule="evenodd" d="M118.23 108.866L121.14 113.115C122.578 115.204 127.175 114.567 131.43 111.677C135.68 108.79 137.964 104.757 136.534 102.665L133.624 98.416L118.23 108.866Z" fill="#334F70"/>
<path fill-rule="evenodd" clip-rule="evenodd" d="M133.624 98.4168C135.055 100.509 132.773 104.546 128.522 107.431C124.271 110.316 119.664 110.96 118.23 108.867C116.797 106.776 119.081 102.739 123.331 99.8534C127.584 96.9668 132.19 96.3258 133.624 98.4168Z" fill="#E8BD54"/>
<path d="M132.581 97.5617C132.214 97.392 131.792 97.282 131.325 97.2271C130.452 97.9183 129.425 98.8797 128.422 99.8058C126.727 101.374 124.776 103.212 123.206 104.784C121.715 106.278 119.653 108.198 118.826 109.466C119.1 109.658 119.419 109.808 119.779 109.91C122.753 107.828 127.06 103.409 130.457 99.8192C131.098 99.1421 132.002 98.311 132.581 97.5617Z" fill="white"/>
<path fill-rule="evenodd" clip-rule="evenodd" d="M120.102 85.1736C119.593 85.5373 118.431 86.2717 117.679 86.9598C115.381 89.0634 113.65 92.8549 117.128 94.8006C118.392 95.5075 120.464 95.4345 121.977 94.9278C124.082 94.2264 127.193 92.3907 129.779 90.5542C132.405 88.691 135.741 86.2152 136.584 84.286C137.447 82.3089 136.922 79.4584 134.268 78.3273C131.859 77.2959 129.189 79.1214 126.238 80.9649C124.072 82.3199 122.184 83.6843 120.102 85.1736Z" fill="#04917B"/>
<path d="M117.679 86.9607C118.431 86.2718 119.594 85.5382 120.102 85.1745C121.197 84.3914 122.24 83.6428 123.295 82.9131C123.081 86.0063 123.837 90.0548 128.862 91.1906C126.487 92.8001 123.84 94.3098 121.977 94.9295C120.463 95.4362 118.392 95.5092 117.128 94.8023C113.65 92.8558 115.381 89.0643 117.679 86.9607Z" fill="#03F2CC"/>
<path fill-rule="evenodd" clip-rule="evenodd" d="M126.351 83.3843C125.936 84.2177 124.603 85.0519 123.243 85.795C122.661 86.1107 121.712 86.6095 121.368 86.1233C120.953 85.542 121.943 84.8045 122.296 84.5421C123.418 83.7087 124.944 82.9358 125.877 82.759C126.09 82.8132 126.316 83.1321 126.351 83.3843Z" fill="white"/>
<path fill-rule="evenodd" clip-rule="evenodd" d="M124.045 87.0611C125.13 88.0972 122.48 90.0476 121.855 88.9691C121.584 88.5025 122.511 87.0855 123.288 86.842C123.568 86.7556 123.856 86.8781 124.045 87.0611Z" fill="white"/>
<path d="M106.601 107.404C108.738 108.815 110.785 110.356 112.713 112.51C114.634 114.659 115.102 117.072 113.888 118.668C112.546 120.431 109.886 120.059 108.115 119.549C105.731 118.863 103.194 117.263 100.811 115.563C100.419 110.655 104.086 108.38 106.601 107.404Z" fill="#04DBB9"/>
<path d="M93.4498 102.55C93.7386 102.398 94.3343 102.107 94.6909 102.045C97.5251 101.556 101.351 104.083 103.936 105.703C104.838 106.269 105.727 106.827 106.601 107.404C104.086 108.379 100.419 110.654 100.811 115.562C99.8583 114.881 98.9319 114.186 98.0482 113.525C96.3771 112.273 94.5095 111.048 93.1965 109.469C90.8744 106.677 90.865 103.907 93.4498 102.55Z" fill="#04917B"/>
<path fill-rule="evenodd" clip-rule="evenodd" d="M97.7183 104.852C98.2958 105.709 99.8865 106.433 101.492 107.049C102.179 107.312 103.297 107.721 103.604 107.139C103.972 106.436 102.775 105.77 102.347 105.533C100.99 104.784 99.1993 104.152 98.1459 104.097C97.9179 104.185 97.7191 104.57 97.7183 104.852Z" fill="white"/>
<path fill-rule="evenodd" clip-rule="evenodd" d="M100.797 108.558C99.7562 109.859 102.959 111.615 103.489 110.341C103.717 109.784 102.488 108.36 101.597 108.205C101.277 108.154 100.979 108.332 100.797 108.558Z" fill="white"/>
<path fill-rule="evenodd" clip-rule="evenodd" d="M109.72 111.742C109.305 112.163 109.638 112.952 110.24 113.563C110.721 114.056 111.869 114.779 112.235 114.075C112.398 113.767 112.214 113.098 111.728 112.576C111.159 111.965 110.258 111.199 109.72 111.742Z" fill="white"/>
<path fill-rule="evenodd" clip-rule="evenodd" d="M32.8874 11.8183C35.8951 13.0955 36.9832 15.4881 35.5771 18.5044C34.0433 21.7869 30.7838 23.8064 28.5801 25.1983C22.1298 29.2758 15.7798 31.4657 8.66355 32.439C7.12653 32.6487 5.6487 32.9448 4.37521 32.5906C2.89422 32.1821 1.76907 31.0361 1.28934 30.3166C-0.06462 28.2924 0.508998 25.2682 2.79401 22.2582C3.55857 21.2504 4.78708 20.3526 5.95957 19.4721C8.93182 17.2397 12.8146 15.2194 15.9817 13.9721C20.4523 12.2141 25.6607 10.4986 30.5905 11.1663C31.299 11.2621 32.0699 11.4687 32.8874 11.8183Z" fill="#C1D5E8"/>
<path d="M39.2707 28.2922C40.0163 26.6953 40.0534 25.276 39.4861 24.1016L39.4908 24.0977L36.0538 15.0159C36.3205 16.0394 36.1785 17.2137 35.5773 18.5027C34.0434 21.7852 30.7839 23.8047 28.5802 25.1966C22.1299 29.2741 15.7799 31.464 8.66367 32.4373C7.12666 32.647 5.64882 32.9431 4.37533 32.5889C2.89434 32.1804 1.76919 31.0344 1.28947 30.3149C1.11904 30.0627 0.980166 29.7949 0.87207 29.5137L4.41479 38.8249C4.53314 39.2836 4.72172 39.7109 4.98288 40.0997C5.46261 40.8208 6.58854 41.9668 8.06796 42.3777C9.34224 42.728 10.8185 42.4319 12.3579 42.2229C19.4741 41.2528 25.8234 39.059 32.2744 34.9823C34.4781 33.5927 37.7392 31.574 39.2707 28.2922Z" fill="#334F70"/>
<path d="M39.2708 28.2925C39.3386 28.1479 39.393 28.0081 39.4491 27.8652C38.2316 25.0594 37.1435 21.7014 35.2783 19.0889C34.9082 19.7565 34.4672 20.3653 33.9819 20.9293C34.034 21.0447 34.0884 21.1602 34.1342 21.2725C35.1749 23.7044 36.2638 25.8936 37.6114 28.1801C37.8734 28.6224 38.1496 29.1699 38.4794 29.6694C38.7737 29.2366 39.0427 28.7802 39.2708 28.2925Z" fill="#C1D5E8"/>
<path d="M31.1658 23.4744C30.7634 23.7713 30.361 24.047 29.9736 24.3046C30.2111 24.5827 30.4904 24.8568 30.683 25.1655C31.6377 26.6878 32.302 28.5612 33.2504 30.2147C33.7183 31.0324 34.3369 31.8618 34.9216 32.6732C35.0013 32.7816 35.0826 32.9073 35.1662 33.0354C35.6057 32.7015 36.0428 32.3441 36.4665 31.9584C36.4255 31.8838 36.3829 31.81 36.345 31.7369C35.0636 29.3255 33.196 25.5818 31.1658 23.4744Z" fill="#C1D5E8"/>
<path d="M30.5842 31.3897C29.665 29.3144 28.7481 27.093 27.5472 25.8315C27.1409 26.0766 26.7369 26.3123 26.3306 26.5432C26.3677 27.3617 27.0004 28.1173 27.3287 28.8667C28.225 30.909 28.8341 32.8852 29.8899 34.8176C30.084 35.1718 30.3001 35.6133 30.5629 36.0186C31.0978 35.7075 31.6336 35.3863 32.1686 35.0493C32.0612 34.7885 31.9437 34.5246 31.8443 34.2756C31.4671 33.3377 30.9984 32.3244 30.5842 31.3897Z" fill="#C1D5E8"/>
<path d="M26.5772 35.9595C25.7503 34.1773 25.0283 32.3549 24.1833 30.6983C23.7848 29.9175 23.3469 28.9207 22.7496 28.3882C22.3007 28.5971 21.8494 28.799 21.3949 28.9914C21.3823 29.6819 21.7026 30.4155 21.9512 31.0392C22.7607 33.0729 23.7123 34.7782 24.8832 36.617C25.2075 37.1283 25.5183 37.9091 26.0107 38.3726C26.4691 38.1668 26.9236 37.9555 27.3804 37.7308C27.27 37.1527 26.847 36.5408 26.5772 35.9595Z" fill="#C1D5E8"/>
<path d="M20.197 35.4286C19.434 33.7249 18.7073 31.7706 17.7534 30.3669C17.1892 30.5539 16.6227 30.7259 16.0522 30.8909C16.1911 31.524 16.4404 32.1924 16.5809 32.6072C17.4251 35.0791 18.1345 36.8881 19.1452 38.9971C19.3945 39.5171 19.6589 40.0984 19.9855 40.6113C20.6546 40.4142 21.3182 40.1989 21.9786 39.9727C21.8034 39.4951 21.5454 39.0073 21.3687 38.551C20.9734 37.5393 20.6491 36.4349 20.197 35.4286Z" fill="#C1D5E8"/>
<path d="M13.9299 34.2888C13.5393 33.4484 13.1211 32.3149 12.5128 31.7737C12.1167 31.8569 11.7167 31.9355 11.3166 32.0117C11.2827 32.8907 11.6543 33.805 11.9652 34.6714C12.7148 36.7537 13.6182 38.6302 14.625 40.5712C14.8033 40.9176 14.9887 41.3527 15.2239 41.7581C15.7856 41.652 16.3411 41.535 16.8942 41.4101C16.7238 40.9482 16.4634 40.4738 16.289 40.0182C15.5466 38.0584 14.8278 36.2313 13.9299 34.2888Z" fill="#C1D5E8"/>
<path d="M9.83073 40.587C9.08352 38.632 8.35999 36.7083 7.6333 34.7933C7.36898 34.0981 7.10781 33.3048 6.74881 32.6929C6.23357 32.7463 5.73412 32.7698 5.25439 32.7353C5.35618 33.3574 5.80119 34.0447 6.01107 34.6322C6.75117 36.7067 7.32006 38.6516 8.17852 40.664C8.42864 41.2516 8.66219 41.9687 9.04644 42.5335C9.51354 42.5594 9.99958 42.5304 10.5006 42.4762C10.4604 41.8823 10.0588 41.1801 9.83073 40.587Z" fill="#C1D5E8"/>
<path fill-rule="evenodd" clip-rule="evenodd" d="M4.16999 29.0166C4.36961 30.2404 1.28138 29.2979 2.12405 28.4079C2.56038 27.9445 3.73997 28.5909 4.16999 29.0166Z" fill="white"/>
<path fill-rule="evenodd" clip-rule="evenodd" d="M5.55967 30.6812C5.35452 30.5139 5.0255 30.0646 5.39082 29.6828C5.86818 29.1793 7.22451 29.4967 7.7855 29.5194C8.46801 29.5485 9.76753 29.2956 10.1186 29.9789C10.6205 30.949 8.63449 31.015 7.95041 31.0103C7.58588 31.0087 7.23003 30.9687 6.9231 30.9506C6.39524 30.9223 5.95181 31.0009 5.55967 30.6812Z" fill="white"/>
<path fill-rule="evenodd" clip-rule="evenodd" d="M25.8951 12.9548C26.6391 12.4073 30.361 12.8834 30.1203 14.1362C29.9223 15.1558 26.6455 14.6586 25.9456 13.8283C25.7633 13.6146 25.7191 13.4253 25.8951 12.9548Z" fill="white"/>
<path fill-rule="evenodd" clip-rule="evenodd" d="M29.5287 16.5839C29.3787 15.3578 31.229 15.672 31.3063 16.404C31.4105 17.3922 29.6636 17.664 29.5287 16.5839Z" fill="white"/>
<path fill-rule="evenodd" clip-rule="evenodd" d="M31.755 14.1802C31.8426 13.013 34.6578 13.511 34.4369 14.562C34.3461 15.005 34.0203 15.0639 33.4411 15.1008C32.5842 15.1558 31.6934 14.9964 31.755 14.1802Z" fill="white"/>
<path fill-rule="evenodd" clip-rule="evenodd" d="M53.1676 67.1372C54.3432 68.9753 55.0794 70.6923 56.8862 71.5391C59.4048 72.7189 63.6931 71.9263 66.0287 73.2405C67.744 74.2035 69.0459 76.6896 70.2499 78.7421C71.5163 80.8998 72.7046 82.9853 73.7666 84.9435C76.0966 89.248 78.5 93.4425 80.8007 97.3503C82.094 99.5442 83.01 101.734 84.016 103.85C86.0935 108.215 87.9059 112.544 89.8429 117.455C90.7898 119.85 92.2897 123.839 91.2506 126.657C90.1736 129.582 86.2158 131.481 83.212 132.96C74.7876 137.108 67.5073 140.695 58.7957 144.463C56.5059 145.453 53.6094 146.664 50.8573 145.564C49.8142 145.147 48.3104 143.758 47.4401 142.663C46.1737 141.065 45.1921 139.003 44.1246 137.062C39.9609 129.484 36.146 121.651 31.8647 113.653C29.7849 109.767 28.0317 105.861 26.1364 101.548C25.0697 99.1169 24.1071 96.5601 24.6302 93.8455C24.9979 91.9438 26.2177 90.2982 27.2442 88.8458C28.2534 87.4123 29.6421 85.7219 29.7565 83.7425C29.8677 81.8157 29.0495 80.4827 28.5501 78.9431C34.4385 75.8726 40.6253 73.0488 46.7386 70.038C48.8366 69.0051 51.1674 67.8002 53.1676 67.1372Z" fill="#00B99C"/>
<path d="M61.6076 129.259C63.9289 128.16 66.3883 126.932 68.0374 125.257C68.566 124.721 69.3124 123.675 69.5452 123.056C70.3161 121.004 69.5239 118.518 68.8406 116.555C68.319 115.052 67.661 113.594 67.1331 112.352C64.6185 106.431 62.4511 101.881 59.8986 96.147C58.5344 93.0852 56.6344 89.1899 52.5638 89.2457C49.6839 89.2858 46.9862 90.8269 44.6255 91.7459C42.1306 92.7184 39.7083 93.6837 37.1897 94.8463C33.8656 96.3835 29.9149 98.1681 26.8393 100.248C26.5403 100.451 26.2018 100.676 25.8633 100.913C25.9524 101.127 26.044 101.339 26.1355 101.549C28.0299 105.862 29.7839 109.767 31.8638 113.654C36.145 121.652 39.96 129.484 44.1236 137.062C44.2049 137.207 44.2822 137.355 44.3619 137.502C47.7737 135.88 51.4363 133.887 54.474 132.46C56.9374 131.302 59.2082 130.397 61.6076 129.259Z" fill="#C1D5E8"/>
<path fill-rule="evenodd" clip-rule="evenodd" d="M44.2623 103.277C45.5295 102.938 47.6717 101.639 49.5835 101.525C50.9437 101.444 52.6496 105.497 52.3585 107.367C52.2007 108.387 49.1392 109.319 47.6464 110.375C48.1964 111.791 49.7665 114.239 48.9759 114.945C47.8618 115.942 45.7204 116.934 44.7475 117.111C43.7739 117.286 42.5967 114.304 41.6064 112.9C40.1633 113.665 38.2278 115.046 36.7729 114.345C35.9878 113.968 34.5794 111.376 34.3561 110.255C33.9356 108.144 36.6924 107.125 38.2223 106.166C37.8538 104.891 36.9741 104.146 37.1343 102.677C37.2826 101.325 39.5068 99.8224 41.122 99.67C43.2942 99.4666 43.5395 101.785 44.2623 103.277Z" fill="white"/>
<path fill-rule="evenodd" clip-rule="evenodd" d="M57.9567 115.758C54.6096 117.245 49.728 119.637 46.2334 121.386C45.3512 121.828 44.0486 122.432 43.2729 123.091C43.785 124.003 44.2797 124.927 44.7792 125.839C46.1292 125.773 47.9866 124.313 48.9831 123.781C52.0753 122.126 54.9773 120.8 57.7452 119.332C58.2462 119.067 58.8159 118.802 59.3406 118.483C58.8759 117.58 58.4159 116.669 57.9567 115.758Z" fill="#334F70"/>
<path fill-rule="evenodd" clip-rule="evenodd" d="M61.9278 123.147C61.5585 122.545 61.2098 121.938 60.8665 121.328C59.5173 121.675 58.2493 122.747 57.2299 123.268C54.8463 124.486 51.3486 126.215 48.9839 127.374C48.329 127.693 47.2196 128.123 46.3706 128.605C46.3943 128.643 46.4179 128.683 46.4416 128.721C46.8858 129.435 47.3293 130.151 47.7735 130.866C48.0394 130.727 48.3226 130.581 48.639 130.451C52.6899 128.794 55.7284 126.962 59.4644 124.978C60.1051 124.636 61.2958 124.113 62.1361 123.489C62.0659 123.375 61.9972 123.259 61.9278 123.147Z" fill="#334F70"/>
<path fill-rule="evenodd" clip-rule="evenodd" d="M73.7168 93.9415C72.3928 92.9895 71.3324 90.4563 70.4423 87.9098C70.0581 86.8179 69.4711 85.0419 70.4131 84.5919C71.543 84.0499 72.5333 85.961 72.8836 86.6459C73.9985 88.8147 74.9019 91.6581 74.9366 93.31C74.7804 93.6635 74.1602 93.9573 73.7168 93.9415Z" fill="white"/>
<path fill-rule="evenodd" clip-rule="evenodd" d="M65.0032 85.0796C62.8894 86.6427 60.2817 81.5291 62.3277 80.7672C63.2161 80.4342 65.4033 82.4379 65.5997 83.8463C65.6692 84.3475 65.3709 84.807 65.0032 85.0796Z" fill="white"/>
<path fill-rule="evenodd" clip-rule="evenodd" d="M64.4538 78.1578C63.765 78.7885 62.5334 78.2238 61.596 77.2513C60.8417 76.4674 59.7592 74.6278 60.889 74.0952C61.3877 73.8525 62.4387 74.1753 63.2372 74.9671C64.1777 75.8893 65.3375 77.3464 64.4538 78.1578Z" fill="white"/>
<path fill-rule="evenodd" clip-rule="evenodd" d="M53.8778 140.742C52.1309 141.75 56.4816 144.644 56.742 142.681C56.8769 141.658 54.8538 140.846 53.8778 140.742Z" fill="white"/>
<path fill-rule="evenodd" clip-rule="evenodd" d="M50.3563 140.714C50.7737 140.798 51.6779 140.75 51.7868 139.901C51.9304 138.79 50.1432 137.421 49.5373 136.744C48.8027 135.92 47.788 134.041 46.569 134.3C44.8299 134.669 46.7812 137.217 47.4897 138.066C47.8653 138.517 48.2788 138.923 48.6165 139.29C49.1932 139.915 49.5499 140.55 50.3563 140.714Z" fill="white"/>
<path fill-rule="evenodd" clip-rule="evenodd" d="M53.4446 61.4378C52.9121 60.4701 52.5704 59.6539 51.9139 58.6477C51.3032 57.7091 50.2522 56.4413 49.2573 56.0116C47.9743 55.4578 46.4192 55.9354 44.9516 56.5269C42.1229 57.6698 32.4732 62.8037 32.4708 62.8069C29.9191 63.9851 27.5339 65.095 25.1227 66.4901C23.7553 67.2787 22.5283 68.1796 22.077 69.5597C21.2635 72.056 23.2085 75.4447 23.6511 76.4564C24.5561 78.5254 25.7192 81.2926 28.9975 80.9329C30.2923 80.7899 31.6897 80.0767 32.9308 79.4719C35.1014 78.4114 48.3223 71.6743 50.4787 70.6217C51.719 70.0169 53.1409 69.3547 54.0482 68.4208C56.3419 66.0635 54.5327 63.4149 53.4446 61.4378Z" fill="#08F2CD"/>
<path d="M23.7661 71.4833C27.1273 69.7677 30.3616 68.2855 33.7086 66.6391C34.5899 66.2048 35.7088 65.5622 36.7692 64.9181C37.1337 64.6974 38.584 64.1114 38.2242 63.4775C38.0664 63.2026 37.4785 63.238 37.0675 63.3409C36.381 63.5097 36.5238 63.5561 35.8918 63.7792C31.9286 65.1868 27.8943 67.0586 24.0999 68.9438C23.4032 69.2902 22.6765 69.6358 21.9624 70.012C21.818 70.7465 21.8796 71.5375 22.0445 72.3127C22.6883 72.0143 23.2753 71.7338 23.7661 71.4833Z" fill="#00B99C"/>
<path d="M48.0554 57.7067C46.4679 58.4969 44.717 59.28 43.3165 60.4276C43.053 60.6413 42.8368 60.9382 42.8115 60.9869C42.6798 61.2461 42.6009 61.5564 42.8305 61.8069C43.2944 62.3112 44.5182 61.7441 45.263 61.411C46.198 60.9932 47.0486 60.5918 47.7208 60.2469C49.0543 59.5667 50.3649 58.9273 51.6723 58.2974C51.2762 57.7389 50.7625 57.127 50.2141 56.6533C49.4898 57.0021 48.7679 57.354 48.0554 57.7067Z" fill="#00B99C"/>
<path d="M29.7138 72.851C30.513 72.4292 32.4162 71.5164 31.867 70.7608C31.4441 70.1748 30.0759 70.8221 29.193 71.196C27.3041 71.9948 25.3568 73.0285 23.6801 73.8886C23.4134 74.0245 23.0576 74.1785 22.6875 74.3497C22.9132 74.909 23.1483 75.4046 23.34 75.8005C25.5012 74.9341 27.5313 74.0033 29.7138 72.851Z" fill="#00B99C"/>
<path d="M51.9399 63.9938C50.2348 64.7958 48.2267 65.7078 46.4412 66.7156C45.6056 67.1876 44.2572 67.8718 44.4678 68.5646C44.7385 69.4585 46.6219 68.5081 47.4432 68.1342C49.9981 66.9685 52.2058 65.7855 54.5018 64.3921C54.6092 64.3269 54.7204 64.2625 54.8301 64.2012C54.6723 63.7598 54.4734 63.3293 54.2573 62.9106C53.4714 63.1345 52.5427 63.7103 51.9399 63.9938Z" fill="#00B99C"/>
<path d="M38.9652 72.4574C39.3329 72.2524 40.9922 71.3499 40.7176 70.7395C40.3413 69.9022 38.951 70.6578 38.5399 70.8055C36.1965 71.646 34.0559 72.719 31.9035 73.7959C29.6563 74.9191 27.4802 75.9465 25.2473 77.3604C24.9806 77.5317 24.6563 77.7288 24.3359 77.9378C24.6515 78.5575 25.024 79.1592 25.4895 79.6635C26.3377 79.1993 27.1764 78.706 28.0191 78.2292C31.7291 76.1366 35.1826 74.5751 38.9652 72.4574Z" fill="#00B99C"/>
<path d="M39.6544 66.091C38.4725 66.6613 36.6333 67.3258 37.1572 68.2275C38.5198 68.4098 48.5033 63.3976 53.187 60.9547C52.9526 60.5085 52.7427 60.0804 52.5021 59.6382C48.8189 61.4472 40.3543 65.7564 39.6544 66.091Z" fill="#00B99C"/>
</svg>
