<svg width="226" height="198" viewBox="0 0 226 198" fill="none" xmlns="http://www.w3.org/2000/svg">
<path d="M30 145C31.1046 145 32 144.105 32 143C32 141.895 31.1046 141 30 141C28.8954 141 28 141.895 28 143C28 144.105 28.8954 145 30 145Z" fill="#CFCFCF"/>
<path d="M152.253 66.8844C136.214 66.8844 119.887 66.2301 104.614 61.9582C89.6282 57.7825 75.869 49.6813 63.6047 40.3101C55.5753 34.2101 48.2742 29.3417 37.8494 30.0729C27.651 30.627 17.8983 34.4512 10.0246 40.9835C-3.23625 52.6447 -1.24329 74.2544 4.06489 89.3792C12.0367 112.22 36.2972 128.134 56.9167 138.429C80.7365 150.379 106.913 157.326 133.148 161.309C156.143 164.83 185.693 167.37 205.622 152.303C223.923 138.429 228.944 106.794 224.46 85.4344C223.372 79.1244 220.026 73.4309 215.051 69.4244C202.192 59.9762 183.01 66.2878 168.561 66.5957C163.195 66.7112 157.734 66.8459 152.253 66.8844Z" fill="#00B99C" fill-opacity="0.1"/>
<path d="M119 163C131.15 163 141 153.374 141 141.5C141 129.626 131.15 120 119 120C106.85 120 97 129.626 97 141.5C97 153.374 106.85 163 119 163Z" fill="#B0E9E0" fill-opacity="0.9"/>
<path d="M96.4665 6.28325C97.663 6.01647 98.9003 5.98796 100.108 6.19934C101.315 6.41073 102.469 6.85787 103.504 7.51524C104.538 8.17262 105.434 9.02734 106.138 10.0306C106.842 11.0339 107.342 12.1661 107.609 13.3625L111.067 28.8714L92.808 32.9427L89.3499 17.4338C89.0824 16.2342 89.0544 14.9936 89.2676 13.7832C89.4808 12.5728 89.9309 11.4164 90.5921 10.3803C91.2534 9.34431 92.1127 8.44906 93.1208 7.74597C94.1288 7.04288 95.2659 6.5458 96.4665 6.28325Z" fill="white" stroke="#B0E9E0" stroke-linecap="round" stroke-linejoin="round"/>
<path d="M181.876 128.172L70.9345 152.901C70.2454 153.056 69.5279 153.028 68.8528 152.821C68.1776 152.614 67.5682 152.234 67.0845 151.719C66.6008 151.204 66.2597 150.572 66.0947 149.886C65.9296 149.199 65.9465 148.481 66.1435 147.802L66.6034 146.211C70.4363 132.619 73.7708 117.648 70.7046 103.845L64.1504 74.4001C58.6312 49.6516 73.4642 24.443 98.071 18.3661C104.071 16.8761 110.309 16.6017 116.417 17.559C122.525 18.5164 128.379 20.6862 133.636 23.9407C138.893 27.1952 143.447 31.4687 147.028 36.5097C150.609 41.5507 153.147 47.2574 154.49 53.2939L161.255 83.7359C164.341 97.5383 173.654 109.73 182.968 120.351L184.06 121.597C184.503 122.13 184.802 122.768 184.93 123.449C185.058 124.13 185.01 124.833 184.792 125.491C184.573 126.148 184.191 126.74 183.681 127.209C183.17 127.678 182.549 128.009 181.876 128.172Z" fill="#B0E9E0" stroke="white" stroke-linecap="round" stroke-linejoin="round"/>
<path d="M143 4C144.105 4 145 3.10457 145 2C145 0.895429 144.105 0 143 0C141.895 0 141 0.895429 141 2C141 3.10457 141.895 4 143 4Z" fill="#00B99C"/>
<path d="M30 145C31.1046 145 32 144.105 32 143C32 141.895 31.1046 141 30 141C28.8954 141 28 141.895 28 143C28 144.105 28.8954 145 30 145Z" fill="#00B99C"/>
<path d="M194 47V55" stroke="#00B99C" stroke-linecap="round" stroke-linejoin="round"/>
<path d="M190 51L198 51" stroke="#00B99C" stroke-linecap="round" stroke-linejoin="round"/>
<path d="M198 171V179" stroke="#00B99C" stroke-linecap="round" stroke-linejoin="round"/>
<path d="M194 175H202" stroke="#00B99C" stroke-linecap="round" stroke-linejoin="round"/>
<path d="M54 16V24" stroke="#00B99C" stroke-linecap="round" stroke-linejoin="round"/>
<path d="M50 20H58" stroke="#00B99C" stroke-linecap="round" stroke-linejoin="round"/>
<path d="M113.5 198C152.436 198 184 195.985 184 193.5C184 191.015 152.436 189 113.5 189C74.5639 189 43 191.015 43 193.5C43 195.985 74.5639 198 113.5 198Z" fill="#00B99C" fill-opacity="0.2"/>
<path d="M189 41.7988C188.994 47.573 186.253 53.1093 181.378 57.1923C176.503 61.2753 169.894 63.5714 163 63.5764C162.152 63.5763 161.304 63.5383 160.461 63.4625L152.754 74L150.351 60.8043C146.347 58.9368 143.003 56.2159 140.659 52.9174C138.315 49.6188 137.053 45.8598 137.002 42.0212C136.95 38.1826 138.111 34.4009 140.367 31.0592C142.623 27.7176 145.893 24.9347 149.846 22.9926C153.8 21.0505 158.296 20.0182 162.879 20.0002C167.462 19.9823 171.969 20.9794 175.944 22.8905C179.919 24.8016 183.22 27.5588 185.512 30.8827C187.805 34.2065 189.008 37.979 189 41.8178V41.7988Z" fill="white" stroke="#BABABA" stroke-linecap="round" stroke-linejoin="round"/>
<path d="M156 44C157.105 44 158 43.1046 158 42C158 40.8954 157.105 40 156 40C154.895 40 154 40.8954 154 42C154 43.1046 154.895 44 156 44Z" fill="#CFCFCF"/>
<path d="M163 44C164.105 44 165 43.1046 165 42C165 40.8954 164.105 40 163 40C161.895 40 161 40.8954 161 42C161 43.1046 161.895 44 163 44Z" fill="#CFCFCF"/>
<path d="M170 44C171.105 44 172 43.1046 172 42C172 40.8954 171.105 40 170 40C168.895 40 168 40.8954 168 42C168 43.1046 168.895 44 170 44Z" fill="#CFCFCF"/>
</svg>
