<svg width="288" height="232" viewBox="0 0 288 232" fill="none" xmlns="http://www.w3.org/2000/svg">
<rect width="288" height="232" fill="white"/>
<path fill-rule="evenodd" clip-rule="evenodd" d="M72.576 155.44H177.408C178.001 155.44 178.579 155.376 179.136 155.253C179.693 155.376 180.271 155.44 180.864 155.44H240.768C245.222 155.44 248.832 151.805 248.832 147.32C248.832 142.835 245.222 139.2 240.768 139.2H233.856C229.402 139.2 225.792 135.565 225.792 131.08C225.792 126.595 229.402 122.96 233.856 122.96H255.744C260.198 122.96 263.808 119.325 263.808 114.84C263.808 110.355 260.198 106.72 255.744 106.72H230.4C234.854 106.72 238.464 103.085 238.464 98.6C238.464 94.1154 234.854 90.48 230.4 90.48H156.672C161.126 90.48 164.736 86.8445 164.736 82.36C164.736 77.8754 161.126 74.24 156.672 74.24H91.008C86.5544 74.24 82.944 77.8754 82.944 82.36C82.944 86.8445 86.5544 90.48 91.008 90.48H44.928C40.4744 90.48 36.864 94.1154 36.864 98.6C36.864 103.085 40.4744 106.72 44.928 106.72H73.728C78.1816 106.72 81.792 110.355 81.792 114.84C81.792 119.325 78.1816 122.96 73.728 122.96H27.648C23.1944 122.96 19.584 126.595 19.584 131.08C19.584 135.565 23.1944 139.2 27.648 139.2H72.576C68.1224 139.2 64.512 142.835 64.512 147.32C64.512 151.805 68.1224 155.44 72.576 155.44ZM260.352 155.44C264.806 155.44 268.416 151.805 268.416 147.32C268.416 142.835 264.806 139.2 260.352 139.2C255.898 139.2 252.288 142.835 252.288 147.32C252.288 151.805 255.898 155.44 260.352 155.44Z" fill="#00B99C" fill-opacity="0.2"/>
<path fill-rule="evenodd" clip-rule="evenodd" d="M105.984 162.4C91.9868 162.4 80.6399 151.234 80.6399 137.46C80.6399 123.686 91.9868 112.52 105.984 112.52C106.579 112.52 107.17 112.54 107.754 112.58C107.348 110.302 107.136 107.956 107.136 105.56C107.136 83.7779 124.672 66.12 146.304 66.12C163.574 66.12 178.233 77.3743 183.443 92.9966C184.677 92.8666 185.931 92.8 187.2 92.8C206.605 92.8 222.336 108.38 222.336 127.6C222.336 145.859 208.138 160.924 190.08 162.375V162.4H125.001M119.803 162.4H111.78H119.803Z" fill="white"/>
<path d="M105.984 163.65C106.674 163.65 107.234 163.09 107.234 162.4C107.234 161.71 106.674 161.15 105.984 161.15V163.65ZM107.754 112.58L107.67 113.827L109.266 113.935L108.985 112.36L107.754 112.58ZM183.443 92.9966L182.257 93.3921L182.575 94.3449L183.574 94.2397L183.443 92.9966ZM190.08 162.375L189.98 161.129L188.83 161.221V162.375H190.08ZM190.08 162.4V163.65H191.33V162.4H190.08ZM125.001 161.15C124.311 161.15 123.751 161.71 123.751 162.4C123.751 163.09 124.311 163.65 125.001 163.65V161.15ZM119.803 163.65C120.494 163.65 121.053 163.09 121.053 162.4C121.053 161.71 120.494 161.15 119.803 161.15V163.65ZM111.78 161.15C111.09 161.15 110.53 161.71 110.53 162.4C110.53 163.09 111.09 163.65 111.78 163.65V161.15ZM105.984 161.15C92.6581 161.15 81.8899 150.525 81.8899 137.46H79.3899C79.3899 151.943 91.3154 163.65 105.984 163.65V161.15ZM81.8899 137.46C81.8899 124.395 92.6581 113.77 105.984 113.77V111.27C91.3154 111.27 79.3899 122.977 79.3899 137.46H81.8899ZM105.984 113.77C106.551 113.77 107.113 113.789 107.67 113.827L107.839 111.333C107.226 111.291 106.607 111.27 105.984 111.27V113.77ZM108.985 112.36C108.591 110.154 108.386 107.882 108.386 105.56H105.886C105.886 108.03 106.105 110.449 106.524 112.799L108.985 112.36ZM108.386 105.56C108.386 84.4601 125.37 67.37 146.304 67.37V64.87C123.974 64.87 105.886 83.0957 105.886 105.56H108.386ZM146.304 67.37C163.015 67.37 177.211 78.2602 182.257 93.3921L184.629 92.6012C179.255 76.4884 164.132 64.87 146.304 64.87V67.37ZM183.574 94.2397C184.765 94.1143 185.974 94.05 187.2 94.05V91.55C185.887 91.55 184.59 91.6189 183.312 91.7535L183.574 94.2397ZM187.2 94.05C205.926 94.05 221.086 109.082 221.086 127.6H223.586C223.586 107.679 207.284 91.55 187.2 91.55V94.05ZM221.086 127.6C221.086 145.196 207.399 159.729 189.98 161.129L190.18 163.621C208.876 162.118 223.586 146.522 223.586 127.6H221.086ZM188.83 162.375V162.4H191.33V162.375H188.83ZM190.08 161.15H125.001V163.65H190.08V161.15ZM119.803 161.15H111.78V163.65H119.803V161.15Z" fill="#00B99C"/>
<path fill-rule="evenodd" clip-rule="evenodd" d="M134.337 74.6374C134.337 112.016 167.769 142.817 210.816 146.975C205.422 153.655 197.091 158.186 187.6 158.898V158.92H110.296C100.917 158.92 85.248 154.941 85.248 137.516C85.248 120.091 97.4295 116.112 110.296 116.112C110.843 116.112 111.386 116.129 111.924 116.164C111.55 114.208 111.484 112.193 111.355 110.139C110.481 96.2616 116.494 78.772 134.358 73.08C134.344 73.5989 134.337 74.1175 134.337 74.6374Z" fill="#00B99C" fill-opacity="0.2"/>
<path d="M157.824 80.04C165.322 82.0382 171.243 87.943 173.307 95.4601" stroke="#00B99C" stroke-width="2.5" stroke-linecap="round"/>
<path d="M124.416 117.74C124.416 121.904 128.026 125.28 132.48 125.28C136.934 125.28 140.544 121.904 140.544 117.74" stroke="#00B99C" stroke-width="2.5" stroke-linecap="round"/>
<path d="M157.824 117.74C157.824 121.904 161.434 125.28 165.888 125.28C170.342 125.28 173.952 121.904 173.952 117.74" stroke="#00B99C" stroke-width="2.5" stroke-linecap="round"/>
<path d="M140.544 139.2H157.248" stroke="#00B99C" stroke-width="2.5" stroke-linecap="round"/>
<path fill-rule="evenodd" clip-rule="evenodd" d="M79.6678 69.9387H65.906V72.6949H75.6381L65.095 85.557V88.16H79.9212V85.4038H69.1247L79.6678 72.3631V69.9387ZM95.1184 87.6682H85.1098V89.6726H92.1877L84.52 99.0269V100.92H95.3027V98.9155H87.4507L95.1184 89.4314V87.6682Z" fill="#00B99C"/>
</svg>
